<?xml version="1.0" encoding="utf-8"?>
<!-- Generator: Adobe Illustrator 16.0.0, SVG Export Plug-In . SVG Version: 6.00 Build 0)  -->
<!DOCTYPE svg PUBLIC "-//W3C//DTD SVG 1.1//EN" "http://www.w3.org/Graphics/SVG/1.1/DTD/svg11.dtd">
<svg version="1.1" xmlns="http://www.w3.org/2000/svg" xmlns:xlink="http://www.w3.org/1999/xlink" x="0px" y="0px" width="500px"
	 height="500px" viewBox="0 0 500 500" enable-background="new 0 0 500 500" xml:space="preserve">
<g id="équipements" display="none">
	<path display="inline" fill="#00533C" d="M371.5,333.1l-12.4-159.7c-1-12.5-7.4-23.7-17.6-30.9c-8.7-6.1-19.3-8.3-29.6-6.7
		c-4.1-6.9-14.8-12.3-30.8-15.4c0-0.6,0.2-1.2,0.2-1.8c0-16.8-13.6-30.4-30.4-30.4c-16.8,0-30.4,13.7-30.4,30.4
		c0,0.5,0.1,1.1,0.2,1.6c-16.8,3.2-27.7,8.6-31.8,15.6c-10.5-1.6-21.3,0.6-30.2,6.8c-10.4,7.3-17,18.8-18,31.5l-12.3,158.6
		c-2,15.1,0.4,26.6,7.2,34.3c7.8,8.8,18.3,9,18.8,9H177l-13.1,76.7c-1.2,6.8,0.7,13.7,5.2,19s10.9,8.3,17.8,8.3h127.6
		c6.9,0,13.4-3,17.8-8.3c4.4-5.2,6.3-12.2,5.1-18.9l-13.1-76.7h21.2c0.5,0,11.3-0.1,19.1-9.1C371.4,359.2,373.7,347.7,371.5,333.1z
		 M262.7,364.3c-0.1,0-0.1,0-0.2,0h-23.3c-0.1,0-0.1,0-0.2,0h-22.8c2.7-7.3,10.6-17.9,33.9-17.9c23,0,31.9,10.6,35.2,17.9H262.7z
		 M249.8,309.5c5.1,7.3,8.7,15.1,8.1,18.8c-2.4,0.3-4.8,0.5-7.6,0.5c-3.2,0-6-0.2-8.7-0.5C240.9,324.5,244.6,316.7,249.8,309.5z
		 M269.5,325.4c-1-12.5-12.4-27.2-15.2-30.5c-1.1-1.3-2.7-3.3-4.4-3.3h0c-1.7,0-3.3,2-4.4,3.3c-2.8,3.2-14,17.8-15.4,30.3
		c-3.6-1.7-6.3-3.9-7.7-6.9c-6.7-14.6,11.9-45.8,27.6-65.5c15.5,19.9,33.9,51.3,27.1,65.9C275.7,321.6,273,323.7,269.5,325.4z
		 M270.2,337.6c8.3-2.6,14.3-7,17.4-13.7c13-28-28.4-77.8-33.2-83.4c-1.1-1.3-2.7-1.3-4.4-1.3h0c-1.7,0-3.3-0.1-4.4,1.2
		c-4.8,5.6-46.8,54.5-33.9,82.7c3.2,7,9.7,11.7,18.6,14.5c-12.7,4.1-19.4,11.8-23,18.8c-59.8-106.2-7.8-180.3,3.3-194.2
		c11.6,3.4,25.9,5,39.9,5c14.4,0,29.2-1.7,40.9-5.3c11.7,15.3,62,90.8,3.4,194.9C290.8,349.8,283.5,341.8,270.2,337.6z M250.9,99.8
		c10.3,0,18.7,8.4,18.7,18.7c0,1.7-0.2,3.4-0.7,5c-2.2,8.1-9.7,13.7-18.1,13.7c-8.9,0-16.6-6.3-18.3-15c-0.2-1.2-0.4-2.5-0.4-3.8
		C232.2,108.2,240.6,99.8,250.9,99.8z M223.3,131.5c0.1,0,0.1-0.1,0.2-0.1c4.9,10.4,15.5,17.5,27.4,17.5c11.8,0,22.4-6.9,27.4-17.2
		c17.8,3.4,23.9,9,23.9,10.7c0,3.8-18.2,13.2-51.8,13.2c-33.6,0-51.8-9.4-51.8-13.2C198.6,140.7,204.5,135,223.3,131.5z
		 M144.3,359.3c-4.3-5-5.8-13.6-4.3-25.2l12.4-159c0.7-9.2,5.5-17.6,13.1-22.9c6.7-4.7,14.8-6.3,22.6-4.8c1.8,4.2,5.7,7.7,11.2,10.5
		c-6.6,9-18.9,28.3-26.2,56.3c-8.7,33.9-10.9,86.8,25.3,150.1h-44C154.2,364.3,148.5,364.2,144.3,359.3z M323.3,464.2
		c-2.2,2.6-5.4,4.1-8.9,4.1H186.9c-3.4,0-6.7-1.5-8.9-4.1c-2.2-2.6-3.2-6-2.6-9.4l13.4-78.7h18.5c0.1,0,0.2,0.1,0.3,0.1
		c0.4,0.1,0.9,0.3,1.3,0.3c0.1,0,0.1-0.1,0.1-0.1c0.8,0,1.5-0.1,2.1-0.4h80.5c0.1,0.1,0.2,0.2,0.4,0.2c0.5,0.1,0.9,0.2,1.4,0.2
		c0.5,0,1-0.3,1.5-0.4h17.6l13.4,78.7C326.5,458.1,325.6,461.6,323.3,464.2z M355.9,359.1c-4.3,5-10.2,5.2-10.4,5.2h-41.7
		c60.5-105.7,14.4-184.9-1.4-206.9c5-2.7,8.6-6.1,10.3-10c7.6-1.4,15.5,0.1,21.9,4.7c7.4,5.2,12,13.3,12.7,22.2l12.5,160.1
		C361.5,345.6,360.2,354.1,355.9,359.1z"/>
</g>
<g id="équipents_multiprise" display="none">
	<g display="inline">
		<path fill="#00533C" d="M446.9,260.8c-8.3-3.6-20.4-3.6-30.3-3.6l0.6,12.9c8.5,0,18.4,0,24.2,2.5c3.9,1.7,10.1,4.9,10.1,15.7V335
			c0,7.9-3.5,13.4-6,15.9c-2.9,2.9-10.8,2.8-17.4,2.7l-3.5,0c-3.2,0-9.6,0.1-18.2,0.2c-30.7,0.4-87.9,1.1-130.6-0.1
			c-22.7-0.7-39.1,4.4-48.8,15c-5.5,6-7.5,12.5-8.1,17.4c-10.5,1.1-19.2,4.9-25.7,12c-14.7,16.2-12.3,41.1-12.2,42.2
			c0.3,3.3,3.1,4.7,6.4,4.7h14.4c-0.9,1.1-1.5,2.4-1.5,4v24.6c0,3.6,2.9,6.5,6.5,6.5s6.5-2.9,6.5-6.5v-24.6c0-1.5-0.6-2.9-1.5-4
			h22.4c-0.9,1.1-1.5,2.4-1.5,4v24.6c0,3.6,2.9,6.5,6.5,6.5c3.6,0,6.5-2.9,6.5-6.5v-24.6c0-1.5-0.6-2.9-1.5-4h14.4
			c3.1,0,5.8-1.2,6.4-4.3c0.2-1.1,4.8-25.8-8.9-42.2c-5.8-6.9-13.9-11-23.9-12.4c0.6-2.6,1.9-5.8,4.6-8.8
			c6.9-7.6,20.4-11.2,38.9-10.7c42.9,1.3,100.5,0.5,131.3,0.2c8.5-0.1,15.1-0.2,18.3-0.2l3.9,0.1c8.3,0.1,18.8,0.2,25.6-6.5
			c5.2-5.1,10-13.4,10-25.2v-46.7C464.5,274.6,457.3,265.3,446.9,260.8z M252.5,431.9h-58.9c0.3,0,1.8-18.2,9-26.1
			c4.7-5.3,11.4-7.2,19.9-7.5c0.7,0.3,1.5,0.4,2.3,0.4c0.3,0,0.6,0,0.8-0.1c0.4-0.1,0.8-0.3,1.2-0.4c8.4,0.3,14.7,2.4,19,7.5
			C252.5,413.7,252.9,431.9,252.5,431.9z"/>
		<path fill="#00533C" d="M412.4,298.3v-69.5c0-18.4-15-33.3-33.3-33.3H68.8c-18.4,0-33.3,15-33.3,33.3v69.5
			c0,18.4,14.9,33.3,33.3,33.3h310.2C397.4,331.6,412.4,316.7,412.4,298.3z M48.4,298.3v-69.5c0-11.3,9.1-20.4,20.4-20.4h310.2
			c11.3,0,20.4,9.2,20.4,20.4v69.5c0,11.3-9.2,20.4-20.4,20.4H68.8C57.6,318.7,48.4,309.6,48.4,298.3z"/>
		<path fill="#00533C" d="M119.1,222.1c-22.9,0-41.5,18.6-41.5,41.5c0,22.9,18.6,41.5,41.5,41.5c22.9,0,41.5-18.6,41.5-41.5
			C160.6,240.7,142,222.1,119.1,222.1z M119.1,292.1c-15.8,0-28.6-12.8-28.6-28.6c0-15.8,12.8-28.6,28.6-28.6
			c15.7,0,28.5,12.8,28.5,28.6C147.7,279.3,134.9,292.1,119.1,292.1z"/>
		<path fill="#00533C" d="M225.9,221.7c-23.1,0-41.9,18.8-41.9,41.9c0,23.1,18.8,41.9,41.9,41.9c23.1,0,41.9-18.8,41.9-41.9
			C267.8,240.5,249,221.7,225.9,221.7z M225.9,292.5c-16,0-29-13-29-29c0-16,13-29,29-29c16,0,29,13,29,29
			C254.8,279.5,241.9,292.5,225.9,292.5z"/>
		<path fill="#00533C" d="M330.5,221.7c-23.1,0-41.9,18.8-41.9,41.9c0,23.1,18.8,41.9,41.9,41.9c23.1,0,41.8-18.8,41.8-41.9
			C372.4,240.5,353.6,221.7,330.5,221.7z M330.5,292.5c-16,0-29-13-29-28.9c0-16,13-29,29-29c15.9,0,29,13,29,29
			C359.5,279.5,346.5,292.5,330.5,292.5z"/>
		<path fill="#00533C" d="M109.3,267c-3.5,0-6.5,2.9-6.5,6.4c0,3.6,2.9,6.5,6.5,6.5c3.6,0,6.5-2.9,6.5-6.5
			C115.7,269.9,112.8,267,109.3,267z"/>
		<path fill="#00533C" d="M129,246.5c-3.6,0-6.5,2.9-6.5,6.5c0,3.6,2.9,6.5,6.5,6.5s6.5-2.9,6.5-6.5
			C135.4,249.4,132.6,246.5,129,246.5z"/>
		<path fill="#00533C" d="M214.8,267c-3.6,0-6.5,2.9-6.5,6.4c0,3.6,2.9,6.5,6.5,6.5c3.5,0,6.4-2.9,6.4-6.5
			C221.2,269.9,218.3,267,214.8,267z"/>
		<path fill="#00533C" d="M234.5,246.5c-3.6,0-6.5,2.9-6.5,6.5c0,3.6,2.9,6.5,6.5,6.5s6.5-2.9,6.5-6.5
			C240.9,249.4,238.1,246.5,234.5,246.5z"/>
		<path fill="#00533C" d="M321.3,267c-3.5,0-6.5,2.9-6.5,6.4c0,3.6,2.9,6.5,6.5,6.5c3.6,0,6.5-2.9,6.5-6.5
			C327.7,269.9,324.8,267,321.3,267z"/>
		<path fill="#00533C" d="M341,246.5c-3.6,0-6.5,2.9-6.5,6.5c0,3.6,2.9,6.5,6.5,6.5s6.5-2.9,6.5-6.5
			C347.4,249.4,344.6,246.5,341,246.5z"/>
	</g>
</g>
<g id="mobilier" display="none">
	<path display="inline" fill="#00533C" d="M408.7,268.4h-64.7v-41.1c0,0,0,0,0-0.1v-82.3c0,0,0,0,0-0.1v-11.7c0-3.2-2.6-5.9-5.9-5.9
		s-5.9,2.6-5.9,5.9v5.9H155.9v-5.9c0-3.2-2.6-5.9-5.9-5.9s-5.9,2.6-5.9,5.9v135.2H91.3c-3.3,0-5.9,2.6-5.9,5.9
		c0,3.2,2.6,5.9,5.9,5.9h17.6v64.7c0,0.9,0.2,1.7,0.6,2.5c0,0,0,0.1,0,0.2c0.1,0.1,0.2,0.2,0.3,0.3c0.4,0.7,1,1.3,1.6,1.7
		c0.2,0.1,0.4,0.3,0.6,0.4c0.8,0.5,1.8,0.8,2.8,0.8h27.7l90.3,55.2l-103.5,63.2c-2.8,1.7-3.6,5.3-2,8.1c1.1,1.8,3,2.8,5,2.8
		c1,0,2.1-0.3,3.1-0.9l108.6-66.4l108.6,66.4c1,0.6,2,0.9,3,0.9c2,0,3.9-1,5-2.8c1.7-2.8,0.8-6.4-2-8.1l-103.5-63.2l90.3-55.2h27.7
		c1,0,1.9-0.3,2.8-0.8c0.2-0.1,0.4-0.3,0.6-0.4c0.7-0.5,1.2-1.1,1.6-1.7c0.1-0.1,0.2-0.2,0.3-0.3c0-0.1,0-0.1,0-0.2
		c0.4-0.8,0.6-1.6,0.6-2.5v-64.7h29.4c3.3,0,5.9-2.6,5.9-5.9C414.6,271,412,268.4,408.7,268.4z M155.9,233.1h176.4v58.8H155.9V233.1
		z M332.3,150.8v70.5H155.9v-70.5H332.3z M144.2,280.1v15.7l-23.5,31.3v-47H144.2z M244.1,399l-79-48.3h158.1L244.1,399z
		 M126.6,338.9l26.4-35.3h182.2l26.5,35.3H126.6z M367.6,327.2l-23.5-31.3v-15.7h23.5V327.2z"/>
</g>
<g id="cuisine_vaiselle" display="none">
	<g display="inline">
		<path fill="#00533C" d="M125.2,323.5c-3.5,0-6.4,2.9-6.4,6.4v90.4c0,1.7,0.7,3.3,1.9,4.5c1.2,1.2,2.8,1.9,4.5,1.9
			c3.5,0,6.4-2.8,6.4-6.4v-90.4C131.6,326.3,128.7,323.5,125.2,323.5z"/>
		<path fill="#00533C" d="M90,287h320.3c2.2,0,4.3-1.2,5.4-3c1.1-1.9,1.2-4.2,0.2-6.2c-11.8-22.7-67.1-39.4-141.1-42.6v-3.1
			c6.2-3.8,9.9-10.7,9.9-18.2c0-11.6-9.5-21.1-21.1-21.1h-27.1c-11.6,0-21.1,9.5-21.1,21.4c0,7.3,3.8,14.1,9.9,17.9v3.1
			c-74,3.2-129.3,19.9-141.1,42.6c-1,2-0.9,4.4,0.2,6.2C85.7,285.8,87.8,287,90,287z M232,247.5c3.4-0.1,6.1-2.9,6.1-6.4v-6.9h24
			v6.9c0,3.4,2.7,6.2,6.1,6.4c67.4,2.2,109.4,15.2,126.9,26.7H105.1C122.6,262.8,164.7,249.7,232,247.5L232,247.5z M267.4,221.6
			h-34.3c-2.8-1.3-4.6-4.1-4.8-7.4v-0.5c0-4.6,3.8-8.4,8.4-8.4h27.1c4.6,0,8.4,3.8,8.4,8.7C272.2,217.3,270.3,220.2,267.4,221.6z"/>
		<path fill="#00533C" d="M433.7,323.2h-23.7v-19.5c0-3.5-2.9-6.4-6.4-6.4h-307c-3.5,0-6.4,2.8-6.4,6.4v19.5H66.3
			c-10.1,0-18.4,8.2-18.4,18.4v0.8c0,10.1,8.2,18.4,18.4,18.4h24.1V429c0,28.1,22.9,51,51,51h217.7c28.1,0,51-22.9,51-51v-68.2h23.7
			c10.1,0,18.4-8.2,18.4-18.4v-0.8C452.1,331.4,443.9,323.2,433.7,323.2z M439.4,341.6v0.8c0,3.1-2.5,5.7-5.7,5.7h-23.4v-12.1h23.4
			C436.9,335.9,439.4,338.5,439.4,341.6z M359.1,467.3H141.4c-21.1,0-38.3-17.2-38.3-38.3V310.1h294.3l0,118.9
			C397.3,450.1,380.2,467.3,359.1,467.3z M60.6,341.6c0-3.1,2.5-5.6,5.6-5.6h23.4V348H66.3c-3.1,0-5.6-2.5-5.6-5.7V341.6z"/>
	</g>
</g>
<g id="activité_nautique" display="none">
	<g display="inline">
		<path fill="#00533C" d="M453.3,454.1c-19.5,2.1-21.8,12.8-45.5,12.8c-26.3,0-26.3-13.1-52.5-13.1c-0.1,0-0.1,0-0.2,0
			c-0.1,0-0.1,0-0.2,0c-26.2,0-26.3,13-52.4,13.1c-26-0.1-26.1-13.1-52.3-13.1c-0.1,0-0.1,0-0.2,0c-0.1,0-0.1,0-0.2,0
			c-26.2,0-26.3,13-52.3,13.1c-26-0.1-26.2-13.1-52.3-13.1c-0.1,0-0.1,0-0.2,0s-0.1,0-0.2,0c-26.3,0-26.3,13.1-52.5,13.1
			c-23.7,0-26-10.7-45.5-12.8c-3.8-0.4-7.1,2.7-7.1,6.5c0,3.4,2.7,6.2,6.1,6.5C66.1,469,68.1,480,92.2,480c0.2,0,0.3,0,0.4,0v0
			c26.2,0,26.3-13,52.4-13.1c26,0.1,26.1,13.1,52.3,13.1c0.1,0,0.1,0,0.2,0c0.1,0,0.1,0,0.2,0c26.2,0,26.3-13,52.3-13.1
			C276,467,276.1,480,302.3,480c0.1,0,0.1,0,0.2,0c0.1,0,0.1,0,0.2,0c26.2,0,26.3-13,52.4-13.1c26,0.1,26.1,13.1,52.3,13.1v0
			c0.2,0,0.2,0,0.4,0c24.1,0,26.1-11,46.5-12.9c3.4-0.3,6.1-3.1,6.1-6.5C460.4,456.8,457.1,453.7,453.3,454.1z"/>
		<path fill="#00533C" d="M275.8,416c0.7,1.8,2.2,3.1,4,3.8c0.6,0.2,1.3,0.3,2,0.3c1.2,0,2.4-0.3,3.4-1l126.9-79.2
			c0.8-0.5,1.5-1.2,2-2c0.1-0.2,0.2-0.5,0.3-0.7c0.3-0.6,0.5-1.2,0.6-1.9c0-0.1,0.1-0.2,0.1-0.4c0.2-1.7,3.3-41.1-26.2-88.3
			C340.4,168.9,241.3,132,166.8,114.7c-2.3-0.5-4.8,0.3-6.4,2.1c-1.6,1.8-2,4.4-1.1,6.6L275.8,416z M284.9,404l-45.8-115
			c7.7-2.9,30.5-10.4,58.1-10.4h1.2c43.1,0,77,18.6,101.1,53.8L284.9,404z M401.1,312.8c-58.9-70.1-148.4-42.5-166.7-35.8L176,130.3
			C359.8,176.5,394.8,270.8,401.1,312.8z"/>
		<path fill="#00533C" d="M111,297.1c11.8,0,21.5-9.6,21.5-21.5c0-11.8-9.6-21.5-21.5-21.5c-11.8,0-21.5,9.6-21.5,21.5
			C89.6,287.5,99.2,297.1,111,297.1z M111,267.2c4.7,0,8.5,3.8,8.5,8.5c0,4.7-3.8,8.5-8.5,8.5c-4.7,0-8.5-3.8-8.5-8.5
			C102.5,271,106.4,267.2,111,267.2z"/>
		<path fill="#00533C" d="M180,331.8l31.5-14.4c6.6-3,10.9-9.3,11-16c0.1-4.9-2.1-9.2-6-12.3c-5.2-4-12.7-4.6-19-1.5L176.3,298
			c-3.8,1.8-8,2.7-12.2,2.6c-7.5-0.3-20.2-0.6-37.9-0.9c-17.5-0.4-25.6,6.4-29.5,12c-6.4,9.3-4.5,20.4-2.7,25.1
			c1.9,4.8,6.2,14,12.1,26.5l7.6,16.3c11.3,24.3,33.1,22.9,33.5,22.8h46c4.4,0,8.6,1.6,11.8,4.6l27,25c4.6,4.3,10.5,6.5,16.4,6.5
			c3.1,0,6.2-0.7,9-2c5.2-2.4,8.8-6.5,10.2-11.6c1.9-6.8-0.4-14.3-6-19.4l-35.8-33.2c-4.6-4.3-10.5-6.8-16.8-7l-25.7-1
			c-7.3-0.3-13.8-4.6-16.9-11.3l-9.1-19.4h13.8C174.2,333.7,177.3,333,180,331.8z M141.3,329.9l13.3,28.6
			c5.2,11.1,15.9,18.2,28.1,18.7l25.7,1c3.2,0.1,6.2,1.4,8.5,3.5l35.8,33.2c2,1.9,2.9,4.4,2.3,6.5c-0.3,1-0.9,2.3-3.2,3.3
			c-3.4,1.6-8,0.7-11.1-2.3l-27-25c-5.6-5.2-13-8.1-20.6-8.1l-46.5,0c-0.1,0-13.7,0.9-21.3-15.4l-7.6-16.3
			c-5.6-11.9-10-21.4-11.8-25.9c-0.9-2.2-1.8-8.4,1.4-12.9c3.8-5.4,12.2-6.5,18.6-6.4c17.6,0.3,30.2,0.6,37.7,0.9
			c6.3,0.3,12.7-1.1,18.4-3.9l21.2-10.3c1.9-0.9,4.1-0.9,5.5,0.2c0.8,0.6,1,1.1,0.9,1.8c0,1.7-1.4,3.5-3.4,4.4L174.7,320
			c-1.1,0.5-2.3,0.7-3.4,0.7h-24c-2.2,0-4.3,1.1-5.5,3C140.6,325.6,140.4,327.9,141.3,329.9z"/>
	</g>
</g>
<g id="sports_eau_vive" display="none">
	<g display="inline">
		<path fill="#00533C" d="M426.4,132.4l-11.6-20.1c-2.9-5.1-9.5-6.9-14.6-3.9L365,128.7c-8.8,5-13,15.5-10.3,25.2l-37.9,21.9
			C309.4,91.9,282.1,33.5,250,33.5c-38.5,0-68.7,82.3-68.7,187.4c0,10.5,0.3,21.1,1,32.6L139.7,278c-7-7.1-18.2-8.7-27-3.6
			l-35.2,20.3c-5.1,3-6.9,9.5-3.9,14.6l11.5,19.9l0.1,0.3c1.9,3.3,5.5,5.3,9.3,5.3c1.9,0,3.7-0.5,5.3-1.5L135,313
			c8.8-5.1,13-15.4,10.3-25.2l37.9-21.9c7.3,83.9,34.7,142.4,66.7,142.4c38.6,0,68.7-82.3,68.7-187.4c0-10.5-0.4-21.1-1-32.6
			l42.6-24.6c2.8,2.8,6.2,4.8,10.1,5.9c5.7,1.6,11.9,0.7,16.9-2.2l35.2-20.3C427.6,144.1,429.3,137.5,426.4,132.4z M416,137.7
			l-34.4,19.9c-5.2,3-12,1.2-15-4.1c-3-5.2-1.2-11.9,4-15l34.7-20L416,137.7z M211.9,236.4l-18.6,10.7c-0.5-9.8-0.7-18.1-0.7-26.2
			c0-105.3,29.7-176.1,57.4-176.1c22.2,0,49.3,48.1,56,137.3l-19.8,11.4c-5.8-27.9-19.9-45.9-36.2-45.9c-21.8,0-39,32.2-39,73.3
			C211,226,211.3,231.2,211.9,236.4z M250,158.9c13.2,0,23.5,22.8,26.5,44.3c0.8,5.8,1.2,11.8,1.2,17.7c0,37.1-14.3,62-27.7,62
			s-27.6-24.9-27.6-62S236.7,158.9,250,158.9z M213.8,248.3c5.8,27.9,19.9,45.9,36.2,45.9c21.9,0,39-32.2,39-73.3
			c0-5.2-0.3-10.4-0.8-15.5l18.6-10.7c0.5,9.7,0.7,18.1,0.7,26.2c0,105.3-29.7,176.1-57.4,176.1c-22.2,0-49.3-48.1-56-137.2
			L213.8,248.3z M129.4,303.2l-34.7,20L84,304l34.4-19.8c5.3-3.1,12-1.2,15,4C136.4,293.4,134.6,300.2,129.4,303.2z"/>
		<path fill="#00533C" d="M217.6,409.5L217.6,409.5c-3.1,0-5.7,2.7-5.7,6.1v51.9c0,3.3,2.5,6.1,5.7,6.1c3.1,0,5.7-2.8,5.7-6.1v-51.9
			c0-1.7-0.6-3.3-1.8-4.5C220.4,410.1,219.1,409.5,217.6,409.5z"/>
		<path fill="#00533C" d="M257.9,428.5c-3.1,0-5.7,3.3-5.7,7.4v24c0,4.1,2.5,7.4,5.7,7.4c3.1,0,5.7-3.3,5.7-7.4v-24
			c0-1.9-0.5-3.8-1.6-5.2C261,429.3,259.5,428.5,257.9,428.5z"/>
		<path fill="#00533C" d="M411.3,176.3L411.3,176.3c-1.5,0-2.9,0.6-4,1.7c-1.1,1-1.7,2.5-1.7,4v52.2c0,3.1,2.5,5.7,5.7,5.7
			c3.1,0,5.7-2.6,5.7-5.7v-52.2C416.9,178.8,414.4,176.3,411.3,176.3z"/>
		<path fill="#00533C" d="M379,208.3L379,208.3c-3.1,0-5.7,2.6-5.7,5.6v17.5c0,3.1,2.6,5.7,5.7,5.7c3.1,0,5.7-2.6,5.7-5.7v-17.5
			C384.6,210.9,382.1,208.3,379,208.3z"/>
		<path fill="#00533C" d="M298.3,399.3L298.3,399.3c-3.1,0-5.7,3.1-5.7,7V473c0,3.9,2.5,7,5.7,7c3.1,0,5.7-3.1,5.7-7v-66.8
			c0-1.8-0.6-3.5-1.6-4.8C301.3,400,299.9,399.3,298.3,399.3z M298.3,400.2L298.3,400.2L298.3,400.2L298.3,400.2z"/>
	</g>
</g>
<g id="équitation" display="none">
	<g display="inline">
		<path fill="#00533C" d="M224.9,142.1c15.4,0,28-12.6,28-28c0-15.5-12.6-28-28-28c-15.4,0-28,12.6-28,28
			C196.8,129.5,209.4,142.1,224.9,142.1z M224.9,99c8.3,0,15.1,6.8,15.1,15.1c0,8.3-6.8,15.1-15.1,15.1s-15.1-6.8-15.1-15.1
			C209.8,105.7,216.6,99,224.9,99z"/>
		<path fill="#00533C" d="M447.5,228.5c-1.5-9.4-7.3-18.1-16.2-23.7l-41.6-26.3l2.1-21.5c0.3-2.9-1.4-5.7-4.2-6.7
			c-2.7-1-5.8-0.1-7.5,2.2c-28.7,39.3-54,64.2-74.5,79.9c-1-1.3-1.9-2.6-2.9-4c0,0,0-0.1,0.1-0.1c2.7-6.5,1.2-14.8-3.7-19.6
			c-1.2-1.2-4.9-4.9-25.2-13.3c-3.5-1.4-6.6-3.8-9-6.7l-20.6-25.1c-0.5-0.6-12-14.8-27.2-13.8c-9.9,0.7-18.5,7.4-25.7,19.8
			c-0.5,0.8-0.8,1.7-0.8,2.7l-5.9,69c0,0.5-0.2,5.9,1.5,13.4c-50.2-3.2-66.1,7.2-78.9,15.6c-1.8,1.2-3.5,2.3-5.3,3.4
			C85,284,48.8,362.6,52.4,381.6c1.4,7.6,5.6,13.1,11.3,15.1c3.3,1.1,9.9,1.9,17.7-5c4.1-3.6,7.1-8.3,9-14.1
			c3.8-11.5,15.1-36,23.9-54.6l0.5,23c0,1.4-0.2,2.7-0.5,4l-9.3,31.4c-1,3.3-1.3,7-0.7,10.4l13.1,79.5c0.3,1.7,1.2,3.1,2.5,4.1
			c4.5,3.4,8.8,4.4,12.3,4.4c1.3,0,2.4-0.1,3.4-0.3c9.8-1.9,15.7-11.3,16.3-12.3c0.8-1.3,1.1-2.8,0.9-4.2l-8.8-64.8
			c3.4-2.8,6.6-5.7,9.6-8.8l37.2,80.3c0.6,1.2,1.5,2.2,2.7,2.9c0.7,0.4,5.2,2.9,10.9,2.9c2.1,0,4.4-0.3,6.7-1.3
			c3.9-1.6,9.1-5.4,11.9-14.7c0.4-1.3,0.3-2.7-0.1-3.9l-25.6-74.5l12.6-19.6h2.6c-0.6,3.9,0.1,9.4,5.6,13.5
			c4.9,3.7,21.4,14.7,22.1,15.2c0.8,0.6,1.8,0.9,2.8,1c0.5,0.1,1.5,0.2,2.9,0.2c3.7,0,9.7-0.8,13.5-5.4c2.2-2.7,4.4-7.5,1.9-15.3
			c-0.2-0.8-0.6-1.5-1.1-2.1l-5.6-6.9l29.2,0.4l5.3,97.9c0.1,1.2,0.5,2.4,1.2,3.4c5.5,7.7,11.5,11.5,17.9,11.5c0.4,0,0.7,0,1.1-0.1
			c10.3-0.7,16.1-11,16.7-12.2c0.4-0.7,0.6-1.6,0.7-2.4l12-120.1c7.8-11.5,15.9-25.9,23.2-39.9c3.3,0.9,6.5,1.5,9.7,1.5
			c2.7,0,5.3-0.3,7.9-1c21.8-5.7,29.9-34.2,32.5-47.5l2,0.3c0.3,0.1,0.5,0.1,0.8,0.1c13.5,0.6,22.6-2,28-8
			C445.8,242.9,448.8,237.3,447.5,228.5z M376.7,178.4l-0.3,2.9c-0.2,2.4,0.9,4.8,3,6.1l36.2,22.9c-0.1,2.1-1.1,16.2-11.3,28.7
			l-20.3-3.5c-3-0.5-5.9,1.1-7.1,3.8c-0.2,0.4-9,20.9-20.9,44.6c-10.4-5.8-24.4-17.9-42.6-41C331.6,228.9,352.9,208.6,376.7,178.4z
			 M252,259.5c-2.5-2.7-7.1-8.9-6.4-18.8s1.2-19.5,1.5-25.9l0.8,0.7c3.9,3.4,8.2,6.1,12.9,8.3c5.5,3.3,22.2,13,30.3,13
			c0.5,0,0.9-0.2,1.4-0.2c0.9,1.3,1.8,2.4,2.7,3.7C272.5,255.5,257.3,258.8,252,259.5z M133.4,390.4c-1.9,1.4-2.9,3.7-2.5,6l9,65.9
			c-1.5,1.8-4,4.2-6.5,4.7c-0.8,0.2-1.9,0.2-3.4-0.5l-12.6-76.6c-0.3-1.5-0.2-3.1,0.3-4.6l9.4-31.4c0.8-2.6,1.1-5.3,1.1-8l-1.1-50
			c-0.1-3-2.2-5.5-5.1-6.2c-2.9-0.6-5.9,0.8-7.2,3.5c-1.2,2.4-29.3,59.7-36.2,80.4c-1.2,3.6-3,6.4-5.3,8.5c-2.3,2-4.2,2.7-5,2.4
			c-0.8-0.3-2.2-1.9-2.8-5.3c-2.6-13.8,31.1-86.9,43.5-94.2c2-1.2,3.8-2.4,5.8-3.7c12.2-8,25.9-17.1,75.5-13.2
			c0.3,0,0.6-0.1,0.9-0.1c2.6,5.2,6,10.6,11.1,15.6c13.4,13.4,28,23.4,35.6,28.2l-18.9,36.8h-34.8c5.8-10.6,8.9-18.3,9.2-19.1
			c1.3-3.3-0.3-7.1-3.6-8.4s-7.1,0.3-8.4,3.6C180.9,325.2,163.9,367.5,133.4,390.4z M184.3,382.5l25.9,75.3
			c-0.8,1.9-1.9,3.8-3.6,4.5c-1.5,0.6-3.4,0.3-4.8-0.1l-38.5-83c4.9-5.9,9.1-11.8,12.8-17.6h18.6l-9.8,15.3
			C183.9,378.6,183.6,380.7,184.3,382.5z M249.7,377.9c-0.4,0.4-1.9,0.7-3.5,0.8c-4.2-2.8-16.3-10.9-20.1-13.8
			c-0.3-0.3-0.7-0.6-0.7-1.2l26.3-51.4c1.6-3.1,0.4-6.9-2.6-8.6c-0.2-0.1-20.6-11.7-38.2-29.3c-14.1-14-13.5-32.1-13.5-32.1
			l5.7-67.3c4.7-7.7,9.6-11.7,14.6-12.1c7.2-0.5,14.1,6.2,16.3,9l20.7,25.2c3.8,4.6,8.7,8.2,14.1,10.5c17.3,7.2,20.6,10.2,20.9,10.5
			c1.5,1.5,1.4,5.1,1.1,5.7c-2.9,0-14.1-5.3-24-11.3c-0.2-0.1-0.5-0.3-0.7-0.4c-3.6-1.6-7-3.8-10-6.4l-27.2-23.7
			c-2.7-2.3-6.8-2.1-9.1,0.6c-2.3,2.7-2.1,6.8,0.6,9.1l14.3,12.5c-0.3,0.7-0.5,1.5-0.5,2.3c0,0.2-0.4,16.2-1.7,33.3
			c-1.4,18.1,9.3,28.4,12.4,31.1c2.8,3.5,16.9,21.3,23.7,28.7c3.8,4.2,1.6,10,1.1,11.3l-29.4,47.1c-1.5,2.3-1.3,5.3,0.5,7.5
			l8.5,10.5C249.9,377.3,249.7,377.9,249.7,377.9z M327.4,334.4c-0.6,0.9-1,1.9-1.1,3l-12,120.3c-1.2,1.8-3.5,4.3-5.5,4.4
			c-1.8,0.1-4-1.6-6.5-4.6l-5.5-102c-0.2-3.4-3-6.1-6.4-6.1l-29-0.4l20.1-32.3c2.7-5.4,5.1-16.9-3-25.9
			c-4.1-4.6-11.4-13.5-16.8-20.2c9.2-2.4,23.2-7.8,41.3-20.2c17.5,22.4,33.1,37.1,47.3,44.9C342.9,309.3,335,323.4,327.4,334.4z
			 M376.5,288.4c-2.1,0.5-4.8,0.7-8.2,0.1c8.4-17,15.3-32.1,18.5-39.5l12.7,2.2C397,264,390.1,284.9,376.5,288.4z M433.4,237.3
			c-1.3,1.5-5.2,3.6-14.5,3.7c5.2-8.3,7.7-16.7,8.8-22.6c3.8,3.4,6.3,7.6,7,12.2C435.4,235.1,433.9,236.7,433.4,237.3z"/>
	</g>
</g>
<g id="golf" display="none">
	<path display="inline" fill="#00533C" d="M424.9,194.2c-12.9-16.8-30.9-24-48-18.8l-141.6,42.5c-2.3,0.7-4.6,1-6.9,1
		c-8.3,0-15.7-4.4-19.9-11.7l-33.9-58.7c-2.6-4.5-7.8-7.1-13.2-6.6L90.6,19.3L60.3,36.8l70.8,122.6c-3.2,4.3-3.5,10.1-0.9,14.8
		l51.5,89.2c15.6,27.1,42.3,43.3,73.4,44.7c-2.8,6.1-4.2,12.6-4.2,19.3c0,15.1,7.3,29.1,19.3,37.9H269c-7.2,0-13,5.8-13,13v10
		c0,6.1,4.1,11.3,10,12.6c1.3,0.3,2.2,1.2,2.4,2.6l13.4,76.5h32.4l13.4-76.5c0.2-1.4,1.1-2.2,2.4-2.5c5.8-1.4,10-6.7,10-12.7v-10
		c0-7.2-5.8-13-13-13h-1.3c12-8.8,19.3-22.9,19.3-37.9c0-5.7-1-11.3-3-16.6l36.5,1.1c0.6,0,1.2,0,1.8,0c32.7,0,59.4-27.4,59.4-61
		v-14.8C439.7,221.9,434.1,206.3,424.9,194.2z M292.3,467.6l-11.6-66.2c-1.1-6.3-5.6-11-11.8-12.5c-0.3-0.1-0.4-0.3-0.4-0.6v-10
		c0-0.3,0.3-0.6,0.6-0.6h58c0.3,0,0.6,0.3,0.6,0.6v10c0,0.3-0.2,0.5-0.5,0.6c-6.2,1.5-10.7,6.2-11.8,12.5l-11.6,66.2H292.3z
		 M298.1,362c-19.1,0-34.6-15.5-34.6-34.6c0-19.1,15.5-34.6,34.6-34.6c19.1,0,34.6,15.5,34.6,34.6C332.7,346.5,317.1,362,298.1,362z
		 M298.1,280.4c-13.3,0-25.9,5.7-34.9,15.6l-6.2-0.2c-27.7-0.8-50.6-14.5-64.5-38.6L141,168c-0.3-0.6-0.1-1.3,0.4-1.6l20.8-12
		c0.5-0.3,1.3-0.1,1.6,0.4l33.9,58.7c6.5,11.2,17.9,17.9,30.7,17.9c3.5,0,7-0.5,10.4-1.5l141.6-42.5c2.5-0.8,5.1-1.1,7.6-1.1
		c21.7,0,39.2,27.4,39.2,50l0,14.8c0,26.3-21.5,48.6-46.9,48.6l-45.5-1.4C325.8,286.9,312.5,280.4,298.1,280.4z M86.1,36.3l64,110.8
		l-8.8,5.1l-64-110.8L86.1,36.3z"/>
</g>
<g id="peche" display="none">
	<g display="inline">
		<path fill="#00533C" d="M377.4,125.5v184.7c0,3.6,2.9,6.5,6.5,6.5c3.6,0,6.5-2.9,6.5-6.5V116c16.9-16,25.5-42.6,25.3-79.3
			c0-2.6-1.6-4.9-4-5.9c-2.4-1-5.2-0.5-7,1.4l-14.3,14.2v-8.1c0-3.6-3-6.5-6.5-6.5c-3.6,0-6.5,2.9-6.5,6.5v21.2l-59.3,59.1h0
			L156.8,279.4c-2.4-0.5-4.9-0.9-7.4-0.9c-18.8,0-34.1,15.3-34.1,34.1c0,2.7,0.4,5.3,1,7.8l-62.4,62.2c-2.5,2.5-2.5,6.6,0,9.1
			c1.3,1.3,2.9,1.9,4.6,1.9c1.7,0,3.3-0.6,4.6-1.9l59-58.9c6.2,8.4,16.1,13.9,27.3,13.9c18.8,0,34.1-15.3,34.1-34.1
			c0-7.8-2.7-14.8-7.1-20.6c16.3-1.2,40.6-6,56.8-23.4c12.8-13.7,18.1-32.5,15.8-56c14.1,1.3,42,1.2,61.4-16.8
			c15.2-14,21.8-35.7,19.7-64.5C341.1,133.4,360,134.6,377.4,125.5z M149.4,333.8c-11.7,0-21.1-9.5-21.1-21.2
			c0-11.6,9.5-21.1,21.1-21.1c11.6,0,21.2,9.5,21.2,21.1C170.5,324.3,161,333.8,149.4,333.8z M223.7,259.8
			c-13.2,14.2-34.1,18.3-48.2,19.4l60.9-60.7C237.2,235.9,233,249.8,223.7,259.8z M301.6,186.4c-13.8,12.8-34.1,14.3-46.9,13.7
			l62.7-62.6C318.2,159.5,312.9,175.9,301.6,186.4z M402.3,52.8c-1.4,17.7-5.4,31.9-11.8,42.7V64.6L402.3,52.8z M335.8,119.2
			l41.7-41.5v32.5c-0.1,0.1-0.2,0.2-0.3,0.3C363.3,120.5,346.6,120.6,335.8,119.2z"/>
		<path fill="#00533C" d="M446.1,468.8l-26.2-26.2c15.5-8.6,26.6-34.1,26.6-65.3c0-38.5-16.7-68.7-38.1-68.7
			c-21.3,0-38.1,30.2-38.1,68.7c0,31.2,11.1,56.7,26.6,65.3l-26.2,26.2c-1.9,1.9-2.4,4.7-1.4,7.1c1,2.4,3.4,4,6,4h66.1
			c2.6,0,5-1.6,6-4.1C448.5,473.5,447.9,470.7,446.1,468.8z M383.4,377.4c0-32.8,13.2-55.6,25-55.6c11.8,0,25,22.8,25,55.6
			c0,32.8-13.2,55.6-25,55.6C396.6,433,383.4,410.1,383.4,377.4z M391.2,466.9l17.2-17.2l17.2,17.2H391.2z"/>
		<path fill="#00533C" d="M407.5,354.1c0-4.7-3.8-8.5-8.5-8.5c-4.7,0-8.5,3.8-8.5,8.5c0,4.7,3.8,8.5,8.5,8.5
			C403.7,362.5,407.5,358.7,407.5,354.1z"/>
	</g>
</g>
<g id="pédalo" display="none">
	<g display="inline">
		<path fill="#00533C" d="M414.8,389.6v-1c-0.1-6.9-0.1-14.4-0.1-22.5c0-244.6-25-315.9-46-332.6c-5-4-9.2-4.3-10.7-4.1
			c-4.8-0.3-9.6,1.6-14,5.6C328.6,49,319.1,86.2,313.8,115c-3.2,17.2-5.8,36.6-7.8,57.6H192c-7.5-76.9-20.8-125-38.4-139.1
			c-5-4-9.2-4.3-10.7-4.1c-4.8-0.3-9.6,1.5-14,5.6c-15.4,13.9-25,51.2-30.3,79.9c-9,48.7-13.5,112.9-13.5,190.7l0,17.3
			c0,76-0.1,114.2,6.7,134c7.9,23.1,24.1,23.1,50.9,23.1c20.1,0,35.4-2,44.8-11.4c12.5-12.6,12.4-34.8,12.1-78.9
			c0-5.9-0.1-12.3-0.1-19h100.7c0.3,45.9,1.5,71.2,6.6,86.3C314.8,480,331,480,357.9,480c20.1,0,35.5-2,44.9-11.4
			C415.3,456,415.1,433.8,414.8,389.6z M188.8,358.2l-1.5-0.6v0.6h-15.3c-4.4,0-8-3.6-8-8v-9.9c0-3.4-2.8-6.2-6.2-6.2h-18.9v-22.3
			h18.9c3.4,0,6.2-2.8,6.2-6.2v-72.3c0-3.4-2.8-6.2-6.2-6.2h-18.9v-22.3h18.9c3.4,0,6.2-2.8,6.2-6.2V193c0-4.4,3.6-8,8-8h157.3
			c4.4,0,8,3.6,8,8v5.3c0,3.4,2.8,6.2,6.2,6.2h18.9v22.3h-18.9c-3.4,0-6.2,2.8-6.2,6.2v72.3c0,3.4,2.8,6.2,6.2,6.2h18.9v22.3h-18.9
			c-3.4,0-6.2,2.8-6.2,6.2v10.4c0,4.4-3.6,8-8,8H188.8z M187.3,389.7c0.3,39.4,0.4,61.2-8.5,70.1c-5.5,5.6-15.7,7.8-36.1,7.8
			c-27.1,0-34.4-0.6-39.2-14.7c-6.1-17.9-6.1-55.3-6-130v-17.3c0-155.8,19.9-243.6,39.7-261.4c1.8-1.6,3.4-2.4,4.9-2.4h0.1
			c0.4,0,0.8,0,1.3,0c0.4,0.1,1.3,0.4,2.5,1.4c6.9,5.5,23.8,29.3,33.7,129.4h-7.6c-11.1,0-20.1,8.9-20.3,19.9h-14.1
			c-6,0-10.9,4.9-10.9,10.9v25.3c0,6,4.9,10.9,10.9,10.9h14.1v59.9h-14.1c-6,0-10.9,4.9-10.9,10.9v25.2c0,6,4.9,10.9,10.9,10.9h14.1
			v3.7c0,11.2,9.1,20.3,20.3,20.3h15.3C187.3,377.4,187.3,383.8,187.3,389.7z M329.2,370.6c11.2,0,20.3-9.1,20.3-20.3V346h14.1
			c6,0,10.9-4.9,10.9-10.9v-25.2c0-6-4.9-10.9-10.9-10.9h-14.1v-59.9h14.1c6,0,10.9-4.9,10.9-10.9V203c0-6-4.9-10.9-10.9-10.9h-14.2
			c-0.5-10.8-9.4-19.5-20.3-19.5h-10.8c9.9-99.3,28.3-123.4,33.9-128.4c1.8-1.6,3.4-2.4,4.9-2.4h0.1c0.4,0,0.8,0,1.3,0
			c0.4,0.1,1.3,0.5,2.5,1.4c9.7,7.7,41.4,53.9,41.4,323c0,8.5,0.1,16.3,0.1,23.5c0.3,39.4,0.4,61.2-8.5,70.1
			c-5.5,5.6-15.7,7.8-36.1,7.8c-27.1,0-34.4-0.6-39.2-14.7c-4.6-13.5-5.7-38.8-6-82.4H329.2z"/>
		<path fill="#00533C" d="M292.1,302.8V260c0-8.3-6.8-15.1-15.1-15.1h-53.4c-8.3,0-15.1,6.8-15.1,15.1v42.9c-4,2.8-6.4,7.3-6.4,12.3
			v10.6c0,8.3,6.7,15.1,15.1,15.1h66.2c8.3,0,15.1-6.8,15.1-15.1v-10.6C298.5,310.2,296.1,305.6,292.1,302.8z M222,260
			c0-0.9,0.7-1.7,1.7-1.7H277c0.9,0,1.7,0.7,1.7,1.7v41.6H222V260z M285.1,325.7c0,0.9-0.8,1.7-1.7,1.7h-35c1.3,2.9-0.6,7.6-4.9,7.6
			c-4.4,0-5.3-4.6-3.4-7.6h-22.9c-0.9,0-1.7-0.7-1.7-1.7v-10.6c0-0.4,0.1-0.7,0.4-1v0.4h69c0.1,0.2,0.2,0.4,0.2,0.7V325.7z"/>
		<path fill="#00533C" d="M300,200h-98.7c-3.6,0-6.5,2.9-6.5,6.5v22c0,3.6,2.9,6.5,6.5,6.5H300c3.6,0,6.5-2.9,6.5-6.5v-22
			C306.4,202.9,303.5,200,300,200z M293.5,221.9h-85.8v-9h85.8V221.9z"/>
	</g>
</g>
<g id="canoe_barque" display="none">
	<path display="inline" fill="#00533C" d="M392.5,374.5l-36-63.1c-0.5-0.7-1.3-1.4-2-1.8l-40.8-23.7c0.7-10.5,1.3-21.2,1.3-32.3
		c0-107.5-42.6-198.3-103.5-225.8c-0.7-0.4-1.4-0.5-2.3-0.5h-0.5c-0.3,0.2-0.7,0.4-1.2,0.5c-60.8,27.4-103.2,118.5-103.2,225.8
		c0,107.4,42.4,198.3,103.1,225.9c1.4,0.5,2.9,0.5,4.1,0c37.3-16.7,67.4-57.4,85.3-110.5l26.4,45.4c6.6,11.8,21.7,16,33.3,9.1
		l26.9-15.5C395.1,401.4,399.2,386.2,392.5,374.5z M290.2,357.4c0,0.2-0.2,0.5-0.4,0.7c-16.7,54.2-46.1,94.6-80.3,111
		c-53.6-26-95.3-112.1-95.3-215.4c0-103.4,41.7-189.4,95.3-215.4c53.6,26,95.3,112.1,95.3,215.4c0,6.2-0.2,12.5-0.4,18.5L295,256
		c-0.2-0.2-0.2-0.4-0.2-0.4v-0.2v-1.8c0-91.6-33.9-169.5-83.2-193.2c-0.9-0.4-2-0.5-3-0.4c-0.3,0-0.9,0.2-1.2,0.4
		c-49.4,23.9-83.2,101.6-83.2,193.2c0,91.6,33.8,169.4,83.2,193.1c1.2,0.7,2.8,0.7,4.3,0.2c34.5-16.6,61.5-59.7,74.5-115.3V349
		c0,0.9,0.2,1.6,0.7,2.5l3.4,5.7V357.4z M251.6,136.2c-1.9-3.6-5.2-5.9-8.7-6.8c-3.5-1.1-7.5-0.9-11,1.2L193.5,153
		c-6,3.4-8.5,10.7-6.4,16.9h-42c13.2-47.9,37.1-84.3,64.5-98.9c27.4,14.6,51.3,51,64.5,98.9h-28.3l-5.9-10.2l6.6-3.7
		C253.3,151.9,255.5,143,251.6,136.2z M142.6,327.6c-1.6-7.1-3-14.6-4.3-22.3h142.5c-1.1,7.7-2.5,15-4.3,22.3H142.6z M274,337.6
		c-13.2,48.1-37,84.3-64.5,98.9c-27.4-14.6-51.1-51-64.3-98.9H274z M136.8,295.4c-1.6-13.4-2.7-27.3-2.7-41.7
		c0-14.2,1-28.2,2.7-41.7h99.4c0,0.2,0,0.2,0.2,0l46.2,80.4c-0.2,1.1-0.2,2-0.4,3H136.8z M138.3,202c1.3-7.5,2.7-15,4.3-21.9h54.7
		c0.5,0,0.9-0.2,1.4-0.2c3.2,0.4,6.4,0,9.4-1.8l6.6-3.8l15.9,27.6H138.3z M276.5,180.1c1.6,7.1,3,14.4,4.1,21.9h-16.4l-12.8-21.9
		H276.5z M282,212c1.1,8.4,2,16.8,2.5,25.3L269.9,212H282z M378.4,399.4l-26.9,15.5c-6.9,4.1-15.5,1.8-19.6-5.4l-35.6-62l-0.2-50.2
		c0-0.9-0.2-1.6-0.7-2.5l-74.6-129.9c-1.3-2.3-4.6-3-6.8-1.8l-10.9,6.3c-2.1,1.4-4.6,0.7-6-1.6c-1.3-2.3-0.5-5,1.6-6.2l38.1-22.1
		c0.5-0.4,1.2-0.5,1.8-0.5c0.5-0.2,1.1,0,1.6,0c1.1,0.4,2,1.1,2.7,2.3c1.2,2.1,0.7,4.6-1.4,5.9l-11,6.4c-2.1,1.4-3,4.6-1.8,6.8
		l74.8,130.6c0.5,0.9,1.1,1.4,2,2l42.9,24.8l35.5,61.8C387.9,386.4,385.3,395.3,378.4,399.4z"/>
</g>
<g id="laverie" display="none">
	<g display="inline">
		<path fill="#00533C" d="M112.7,105h274.6c3.1,0,5.7-2.6,5.7-5.7c0-3.1-2.5-5.7-5.7-5.7H112.7c-3.1,0-5.6,2.6-5.6,5.7
			C107.1,102.4,109.6,105,112.7,105z"/>
		<path fill="#00533C" d="M148.8,161.1c4.5,0,8.1-3.6,8.1-8.1s-3.6-8.1-8.1-8.1c-4.5,0-8.1,3.6-8.1,8.1S144.3,161.1,148.8,161.1z"/>
		<path fill="#00533C" d="M293.9,161.1c4.5,0,8.1-3.6,8.1-8.1s-3.6-8.1-8.1-8.1c-4.5,0-8.1,3.6-8.1,8.1S289.5,161.1,293.9,161.1z"/>
		<path fill="#00533C" d="M323.2,161.1c4.5,0,8.1-3.6,8.1-8.1s-3.6-8.1-8.1-8.1c-4.5,0-8.1,3.6-8.1,8.1S318.8,161.1,323.2,161.1z"/>
		<path fill="#00533C" d="M352.5,161.1c4.5,0,8.1-3.6,8.1-8.1s-3.6-8.1-8.1-8.1c-4.5,0-8.1,3.6-8.1,8.1S348,161.1,352.5,161.1z"/>
		<path fill="#00533C" d="M387.3,118.9H112.7c-3.1,0-5.7,2.5-5.7,5.6v325c0,3.1,2.5,5.7,5.7,5.7h18.5v19.1c0,3.1,2.6,5.7,5.7,5.7
			c3.1,0,5.7-2.5,5.7-5.7v-19.1h215.3v19.1c0,3.1,2.5,5.7,5.6,5.7c3.1,0,5.7-2.5,5.7-5.7v-19.1h18.1c3.1,0,5.7-2.6,5.7-5.7v-325
			C393,121.4,390.4,118.9,387.3,118.9z M363.5,443.9C363.5,443.9,363.5,443.9,363.5,443.9H137c0,0-0.1,0-0.1,0s0,0-0.1,0h-18.5
			V187.9h263.3v255.9H363.5C363.5,443.9,363.5,443.9,363.5,443.9z M381.6,176.6H118.4v-46.4h263.3V176.6z"/>
		<path fill="#00533C" d="M250,230.3c-47.7,0-86.6,38.8-86.6,86.6c0,47.7,38.9,86.6,86.6,86.6c47.7,0,86.6-38.9,86.6-86.6
			C336.6,269.2,297.7,230.3,250,230.3z M250,392.2c-41.5,0-75.3-33.8-75.3-75.3s33.8-75.3,75.3-75.3c41.5,0,75.3,33.8,75.3,75.3
			S291.5,392.2,250,392.2z"/>
		<path fill="#00533C" d="M250,254.1c-34.6,0-62.9,28.2-62.9,62.8c0,34.6,28.2,62.9,62.9,62.9c34.6,0,62.9-28.2,62.9-62.9
			C312.9,282.2,284.6,254.1,250,254.1z M250,368.5c-28.5,0-51.6-23.2-51.6-51.6s23.1-51.6,51.6-51.6s51.6,23.2,51.6,51.6
			S278.5,368.5,250,368.5z"/>
	</g>
</g>
<g id="location_vélos" display="none">
	<path display="inline" fill="#00533C" d="M452.6,383c-4.7-38-34.4-68.4-72.2-74.2c-23-3.5-45.8,2.2-64.3,16
		c-6-24.9-5.8-47.1-5.8-48.1l-0.1-26.7h39.5c3.6,0,6.5-2.9,6.5-6.5s-2.9-6.5-6.5-6.5h-44.5c-3.6,0-6.5,2.9-6.5,6.5
		c0,0.1,0.1,0.2,0.1,0.2c0,0.1-0.1,0.2-0.1,0.3l0.1,29.4l-106.8-0.3l0.1-14.1c7.5-2.1,15.2-2.1,22.4,0.3c1.6,0.5,3.4,0.2,5-0.8
		c0.8-0.5,7.2-5.2,6.8-12c-0.2-3-1.8-7.3-8.4-10.6c-0.6-0.3-1.2-0.5-1.7-0.5c0,0-0.2,0-0.6-0.1c-8.3-1.2-29.6-4.5-50.4-8.5
		c-1.9-0.3-3.9,0.3-5.2,1.7c-1,1-9.5,10.2-7.7,20.5c1,5.6,4.9,10.2,11.7,13.5c0.6,0.2,6.1,1.9,16.7-0.4l0,14.6l-17.1,36.8
		c-12.7-4.8-25.8-6.6-39.1-5.3c-42.8,4.2-76.9,41.2-77.6,84.1c-0.4,23.3,8.3,45.2,24.7,61.8c16.3,16.6,38.1,25.8,61.4,25.8
		c41.1,0,76.5-29.2,84.4-69.4l7.6,0c2,9.8,9.7,17.6,19.5,19.6l0.8,30h-6.8c-3,0-7.7,2.5-7.7,5.9v4.1c0,2.5,2.6,3.8,7.7,3.8h24.7
		c2,0,6.5,0,6.5-3.8v-4.1c0-3.3-3.5-5.9-6.5-5.9h-6.4l-0.8-30.4c11-3,18.6-12.8,18.6-24.1c0-8.2-4-15.8-10.7-20.5l36.7-83.7
		c1.2,11.2,3.2,21.8,5.9,31.7c-18.9,19-27.7,45.1-24.4,71.8c4.8,38.1,36,69.3,74.1,74.2c3.8,0.5,7.5,0.7,11.2,0.7
		c22.7,0,44.4-8.9,60.7-25.1C447,436,455.9,409.8,452.6,383z M239.6,396.2c2.6-2.6,6-4,9.6-4c1.1,0,2.3,0.1,3.4,0.4
		c4.7,1.1,8.6,5.1,9.8,9.8c1.1,4.7-0.2,9.6-3.6,13c-3.4,3.4-8.2,4.7-13,3.6c-4.7-1.1-8.6-5.1-9.8-9.8
		C234.9,404.4,236.2,399.6,239.6,396.2z M252.8,349.9h6.8c2.3,0,5.3-0.4,5.3-4.2v-4.1c0-3.2-2.2-5.5-5.3-5.5h-24.7
		c-2.9,0-4.3,1.9-4.3,5.5v4.1c0,3.1,1.1,4.2,4.3,4.2h6.4l0.8,29l-46.6-95.2l100.2-0.5l-42.1,96.2L252.8,349.9z M207.4,393.9
		c0,1.7-0.1,3.5-0.3,5.7l-71.1,0.1l33.1-71C192.7,342,207.4,366.9,207.4,393.9z M173.9,318.4l12.6-27l46.7,95.3
		c-4,3.4-6.9,7.9-8.1,12.9l-6.4,0c0.1-1.8,0.3-3.8,0.3-5.7C218.8,362.4,201.6,333.5,173.9,318.4z M184.3,249.4
		c-4.3,1.4-10.6,3-16.1,2.6l-0.2,0c-4.1-2.1-4.4-4.1-4.5-4.8c-0.5-2.9,1.7-6.6,2.9-8.4c22.2,4.2,44,7.4,47.2,7.9
		c0.4,0.3,0.7,0.5,1,0.6C198.8,243.5,186.6,248.4,184.3,249.4z M122.2,408.2c1,1.5,2.7,2.4,4.8,2.4l78.5,0.1
		c-7.7,33.6-38.1,57.9-72.7,57.9c-20.1,0-39-7.9-53.2-22.3c-14.1-14.4-21.8-33.4-21.4-53.6c0.6-37.1,30-69.1,67-73
		c2.5-0.3,5.1-0.4,7.6-0.4c8.8,0,17.4,1.6,25.8,4.7l-36.8,79C121,404.7,121.1,406.5,122.2,408.2z M371.2,396.1
		c0.7-3.1-1.3-6.1-4.3-6.8c-21.9-4.9-37.9-22.5-47.5-52.5c16.1-13.5,36.4-19.5,57.3-16.9c32.4,4,58.8,29.3,64.1,61.3
		c4,24.3-3.6,48.2-20.8,65.4c-17.3,17.2-41.1,24.8-65.5,20.8c-30.4-5.1-54.7-28.8-60.5-59c-4.3-22.5,1.6-45.2,16.2-62.6
		c11.2,30.7,29.4,49,54.2,54.5c0.4,0.1,0.8,0.1,1.2,0.1C368.3,400.6,370.7,398.7,371.2,396.1z"/>
</g>
<g id="draps_fournis" display="none">
	<path display="inline" fill="#00533C" d="M410.4,277L380,263.5l15.3-3.3c6.4-1.3,13.2-4.6,19-9.5c7.2-6.3,9.7-16.1,6.3-24.5
		c-2.3-5.6-6.9-10-14.5-13.8l-97-45.8c-8.1-3.6-17.6-4.9-26-3.5L108.1,194c-18.3,3.6-34,15.6-41.8,32.2c-9.2,19.7-8.2,42.6,2.6,61.2
		l6.3,10.9c1.9,3.1,3.9,6,6.2,8.6c-7.3,4.1-11.5,8.1-11.7,8.3c-11.1,12-13.7,30.2-6.4,45.2l0.6,0.9c5.1,10.5,19.4,24.1,28.8,33.1
		l73.2,66.4c9.2,8.8,25.2,19.2,48.8,19.2c8.3,0,16.5-1.1,25.1-3.4l170-49.6c6.6-2.1,28.3-10.6,28.7-30.6c0.2-6.1-0.4-21.6-11.5-32.3
		c-2.4-2.2-5-3.9-7.9-5.3c11.7-5.9,19.2-17.1,21.1-31.8v-0.3l0.4-0.4l0.1-1.3C441.6,304.1,429.5,284.8,410.4,277z M89,315.4
		l90.4,79.4c12.2,10.4,27.5,16.2,43.3,16.2c6,0,11.7-0.8,17.9-2.6l153.4-42.7c11.4-1.1,19.6,0.9,25.3,6.2c8.2,7.9,8.2,21.4,8.2,24.2
		c-0.4,14.1-20.8,20.2-21,20.3l-170.1,49.5c-33.5,9.2-53.9-4.2-63.1-13l-68.7-62.1l-4.5-4c-9-8.6-22.7-21.5-26.7-30.2l-0.7-1
		c-4.9-10.7-3-23.7,4.5-32.4C77.3,323.1,81.9,318.8,89,315.4z M408.3,350.9l-169.8,47c-18.2,5.2-36.9,0.9-51.1-11.8L94.3,305
		c-3.6-3.3-6.9-7.1-9.7-11.7l-6.3-11.3c-9.1-15.8-9.8-35-2-51.5c6.7-13.8,19.3-23.4,33.8-25.7l90.8-16l121.5,67.5l0.8,0.3
		c3.2,1.6,5.3,3.8,6.3,6.7l-105.9,23c-10.1,2.3-18.7,8.3-24.1,16.9c-5.9,9.5-6.9,20.6-2.8,31.9c8.2,24,29.9,25.9,36.4,25.9
		c2.9,0,5.6-0.5,7.8-0.9l116.5-27l24.4-5.8c5.8-1.2,9.8-6.4,9.3-12.3c0-1.6-1-5.2-5-7.4c-3.6-2.1-8.5-1.6-14.6,1.4l-2.7,0.3v1.7
		l-14.8,11.5l-115.3,26.9c-1.8,0.3-3.6,0.3-5.6,0.3c-6,0-20.5-1.8-26-18.1c-2.6-8.1-1.9-16,1.7-22.7c3.9-6.2,10-10.4,17.1-11.9
		l110.7-24.1l25.4-5.4c0.5,0.4,1.1,0.7,1.8,0.8l42.4,18.5c14.9,6.5,24.2,21.4,23,37.1l-0.4,1.9C426.9,339,420,347.5,408.3,350.9z
		 M253.4,179.7l84.5,47c7.1,3.4,27.8,13.4,32.4,27.9l-30.2,6.5c-1.8-6-6-10.9-12.1-14l-109.8-61.3L253.4,179.7z M305,176.8
		l96.9,45.7c5.1,2.6,8,5,9.2,7.8c1.6,4.2,0.3,9-3.2,12.2c-4.8,3.9-9.2,6.2-13.9,7.2l-12.8,2.3c-3.9-13.1-16.5-24.7-38.3-35.3
		l-72.6-40.1l15.1-2.6h0C292.1,172.9,299.2,173.9,305,176.8z"/>
</g>
<g id="piscine_naturelle" display="none">
	<g display="inline">
		<path fill="#00533C" d="M410.4,380c0.2,3.4,3.1,8.1,6.5,8.1h0.4c3.6,0,6.3-5.2,6-8.8c-0.1-0.7-4.2-73.3,32.1-127.4
			c2-3,1.2-6.7-1.8-8.7c-3-2-7-0.7-9,2.3C405.9,303.3,410.2,377,410.4,380z"/>
		<path fill="#00533C" d="M410,288.1c0.2,0,0.3,0,0.4,0c3.4,0,6.2-2.6,6.5-6c3.5-50.4,27-90.7,27.2-91.1c1.8-3.1,0.8-7.1-2.3-8.9
			c-3.1-1.8-7-0.8-8.9,2.3c-1,1.7-25.3,43.3-29,96.8C403.7,284.8,406.4,287.9,410,288.1z"/>
		<path fill="#00533C" d="M336.3,257c0.2,0.1,23.6,14.1,23.6,112c0,3.6,2.9,6.5,6.5,6.5s6.5-2.9,6.5-6.5
			c0-107.6-28.1-122.4-31.3-123.8c-3.3-1.4-7.2,0.1-8.6,3.4C331.6,251.9,333.1,255.6,336.3,257z"/>
		<path fill="#00533C" d="M384.1,392.2c-0.4,3.6,2.1,6.8,5.7,7.2c0.3,0,0.5,0.1,0.8,0.1c3.2,0,6-2.4,6.4-5.7
			c0.6-4.7,13.4-116-45.3-247.6c-1.5-3.3-5.3-4.7-8.6-3.3c-3.3,1.5-4.7,5.3-3.3,8.6C397,279.6,384.3,391.1,384.1,392.2z"/>
		<path fill="#00533C" d="M45.7,361.5c20.4,1.8,22.4,12.9,46.5,12.9c0.1,0,0.3,0,0.4,0v0c26.2,0,26.3-13.1,52.3-13.1
			c26,0.1,26.1,13.1,52.3,13.1c0.1,0,0.1,0,0.2,0c0.1,0,0.1,0,0.2,0c26.2,0,26.3-13.1,52.3-13.1c26.1,0.1,26.1,13.1,52.3,13.1
			c0.1,0,0.1,0,0.2,0c0.1,0,0.1,0,0.2,0c20.7,0,25.2-8.1,39-11.6c2.9-0.7,4.8-3.3,4.8-6.3c0-0.1,0-0.1,0-0.1
			c-0.1-4.2-4.2-7.2-8.2-5.9c-11.6,3.8-16.8,10.7-35.8,10.8c-26-0.1-26.1-13.1-52.3-13.1c-0.1,0-0.1,0-0.2,0c-0.1,0-0.1,0-0.2,0
			c-20.8,0-25.3,8.1-39.2,11.6V266c0-6.9,1.7-13.2,4.9-18.3c5.2-8.1,13-12.3,23.2-12.3c27.3,0,29,23.8,29,24.1
			c0,3.6,2.9,6.5,6.5,6.5c3.6,0,6.5-2.9,6.5-6.5c0-7.8-7.1-37-41.9-37c-18.5,0-28.8,10-34.1,18.3c-4.5,7.1-6.9,15.8-6.9,25.2v15.2
			h-95.2V266c0-6.9,1.7-13.2,4.9-18.3c5.2-8.1,13-12.3,23.1-12.3c27.3,0,29,23.9,29,24.1c0,3.6,2.9,6.5,6.5,6.5s6.5-2.9,6.5-6.5
			c0-7.8-7.1-37-41.9-37c-18.5,0-28.8,10-34.1,18.3c-4.5,7.1-6.9,15.9-6.9,25.2v95.2c-21-0.8-24.1-10.6-42.8-12.6
			c-3.8-0.4-7.1,2.7-7.1,6.5C39.7,358.4,42.3,361.2,45.7,361.5z M197.5,361.3c-26.1-0.1-26.1-13.1-52.3-13.1c-0.1,0-0.1,0-0.2,0
			c-0.1,0-0.1,0-0.2,0c-22.2,0-25.8,9.3-42.3,12.2v-26.3h95.2v26.8c0,0.1,0.1,0.2,0.1,0.3C197.6,361.3,197.6,361.3,197.5,361.3z
			 M197.7,294.1v27.1h-95.2v-27.1H197.7z"/>
		<path fill="#00533C" d="M453.3,454.1c-19.4,2.1-21.8,12.8-45.5,12.8c-26.3,0-26.3-13.1-52.5-13.1c-0.1,0-0.1,0-0.2,0
			c-0.1,0-0.1,0-0.2,0c-26.2,0-26.3,13.1-52.3,13.1c-26-0.1-26.1-13.1-52.3-13.1c-0.1,0-0.1,0-0.2,0c-0.1,0-0.1,0-0.2,0
			c-26.2,0-26.3,13.1-52.3,13.1c-26.1-0.1-26.1-13.1-52.3-13.1c-0.1,0-0.1,0-0.2,0c-0.1,0-0.1,0-0.2,0c-26.3,0-26.3,13.1-52.5,13.1
			c-23.7,0-26-10.7-45.5-12.8c-3.8-0.4-7.1,2.7-7.1,6.5c0,3.4,2.7,6.2,6.1,6.5C66.1,469,68.1,480,92.2,480c0.1,0,0.3,0,0.4,0v0
			c26.2,0,26.3-13.1,52.3-13.1c26,0.1,26.1,13.1,52.3,13.1c0.1,0,0.1,0,0.2,0c0.1,0,0.1,0,0.2,0c26.2,0,26.3-13.1,52.3-13.1
			c26.1,0.1,26.1,13.1,52.3,13.1c0.1,0,0.1,0,0.2,0c0.1,0,0.1,0,0.2,0c26.2,0,26.3-13.1,52.3-13.1c26.1,0.1,26.1,13.1,52.3,13.1v0
			c0.1,0,0.3,0,0.4,0c24.1,0,26.1-11,46.5-12.9c3.4-0.3,6-3.1,6-6.5C460.4,456.8,457.1,453.7,453.3,454.1z"/>
		<path fill="#00533C" d="M45.7,414.6c20.4,1.8,22.4,12.9,46.5,12.9c0.1,0,0.3,0,0.4,0v0c26.2,0,26.3-13.1,52.3-13.1
			c26,0.1,26.1,13.1,52.3,13.1c0.1,0,0.1,0,0.2,0c0.1,0,0.1,0,0.2,0c26.2,0,26.3-13.1,52.3-13.1c26.1,0.1,26.1,13.1,52.3,13.1
			c0.1,0,0.1,0,0.2,0c0.1,0,0.1,0,0.2,0c26.2,0,26.3-13.1,52.3-13.1c26.1,0.1,26.1,13.1,52.3,13.1v0c0.1,0,0.3,0,0.4,0
			c24.1,0,26.1-11,46.5-12.9c3.4-0.3,6-3.1,6-6.5c0-3.8-3.3-6.9-7.1-6.5c-19.4,2.1-21.8,12.8-45.5,12.8c-26.3,0-26.3-13.1-52.5-13.1
			c-0.1,0-0.1,0-0.2,0c-0.1,0-0.1,0-0.2,0c-26.2,0-26.3,13.1-52.3,13.1c-26-0.1-26.1-13.1-52.3-13.1c-0.1,0-0.1,0-0.2,0
			c-0.1,0-0.1,0-0.2,0c-26.2,0-26.3,13.1-52.3,13.1c-26.1-0.1-26.1-13.1-52.3-13.1c-0.1,0-0.1,0-0.2,0c-0.1,0-0.1,0-0.2,0
			c-26.3,0-26.3,13.1-52.5,13.1c-23.7,0-26-10.7-45.5-12.8c-3.8-0.4-7.1,2.7-7.1,6.5C39.6,411.5,42.3,414.3,45.7,414.6z"/>
	</g>
</g>
<g id="piscien_chauffée" display="none">
	<g display="inline">
		<path fill="#00533C" d="M45.7,361.5c20.4,1.8,22.4,12.9,46.5,12.9c0.1,0,0.3,0,0.4,0v0c2.6,0,4.8-0.2,6.9-0.4
			c0.7-4.6,1.9-8.9,4.7-12.9c0.3-0.5,0.7-0.8,1-1.3c-3.6,0.9-7.7,1.5-13,1.5c-23.7,0-26-10.7-45.5-12.8c-3.8-0.4-7.1,2.7-7.1,6.5
			C39.7,358.5,42.3,361.2,45.7,361.5z"/>
		<path fill="#00533C" d="M192.9,361.1c2.2,3.9,2.7,8.8,1.6,13.2c0.9,0.1,1.8,0.1,2.8,0.1c0.1,0,0.1,0,0.2,0c0.1,0,0.1,0,0.2,0
			c26.2,0,26.3-13.1,52.3-13.1c26.1,0.1,26.1,13.1,52.3,13.1c0.1,0,0.1,0,0.2,0c0.1,0,0.1,0,0.2,0c26.2,0,26.3-13.1,52.3-13.1
			c26.1,0.1,26.1,13.1,52.3,13.1v0c0.1,0,0.3,0,0.4,0c24.1,0,26.1-11,46.5-12.9c3.4-0.3,6-3.1,6-6.5c0-3.8-3.3-6.9-7.1-6.5
			c-19.4,2.1-21.8,12.8-45.5,12.8c-8.8,0-14.6-1.5-19.4-3.5V266c0-6.9,1.7-13.2,4.9-18.3c5.2-8.1,13-12.3,23.1-12.3
			c27.3,0,29,23.8,29,24.1c0,3.6,2.9,6.5,6.5,6.5c3.6,0,6.5-2.9,6.5-6.5c0-7.8-7.1-37-41.9-37c-18.5,0-28.8,9.9-34.1,18.3
			c-4.5,7.1-6.9,15.8-6.9,25.2v15.2h-95.2V266c0-6.9,1.7-13.2,4.9-18.3c5.2-8.2,13-12.3,23.1-12.3c27.3,0,29,23.8,29,24.1
			c0,3.6,2.9,6.5,6.5,6.5c3.6,0,6.5-2.9,6.5-6.5c0-7.8-7.1-37-41.9-37c-18.5,0-28.8,10-34.1,18.3c-4.5,7.1-6.9,15.9-6.9,25.2v84.8
			c-4.4-1.5-9.6-2.6-17.1-2.6c-0.1,0-0.1,0-0.2,0c-0.1,0-0.1,0-0.2,0c-26.2,0-26.3,13.1-52.3,13.1
			C195.9,361.3,194.4,361.2,192.9,361.1z M375.4,294.1v27.1h-95.2v-27.1H375.4z M280.2,354.1v-20h95.2v17.8
			c-5-2.1-10.9-3.8-20.2-3.8c-0.1,0-0.1,0-0.2,0c-0.1,0-0.1,0-0.2,0c-26.2,0-26.3,13.1-52.3,13.1c-10.8,0-17.1-2.3-22.7-5
			C280.1,355.6,280.2,354.9,280.2,354.1z"/>
		<path fill="#00533C" d="M45.7,414.6c20.4,1.8,22.4,12.9,46.5,12.9c0.2,0,0.3,0,0.4,0v0c4.2,0,7.7-0.4,10.8-1
			c-2.2-3.9-3.7-8-4.4-12.5c-2.1,0.2-4.3,0.4-6.8,0.4c-23.7,0-26-10.7-45.5-12.8c-3.8-0.4-7.1,2.7-7.1,6.5
			C39.7,411.5,42.3,414.3,45.7,414.6z"/>
		<path fill="#00533C" d="M453.3,401.5c-19.4,2.1-21.8,12.8-45.5,12.8c-26.3,0-26.3-13.1-52.5-13.1c-0.1,0-0.1,0-0.2,0
			c-0.1,0-0.1,0-0.2,0c-26.2,0-26.3,13.1-52.3,13.1c-26-0.1-26.1-13.1-52.3-13.1c-0.1,0-0.1,0-0.2,0c-0.1,0-0.1,0-0.2,0
			c-26.2,0-26.3,13.1-52.3,13.1c-1.5,0-2.7-0.1-4-0.2c-0.6,0.9-1.3,1.8-2,2.7c-2,2.4-4,4.8-6.1,7.2c-0.4,0.7-0.8,1.4-1.2,2
			c3.6,0.9,7.8,1.5,13.1,1.5c0.1,0,0.1,0,0.2,0c0.1,0,0.1,0,0.2,0c26.2,0,26.3-13.1,52.3-13.1c26.1,0.1,26.1,13.1,52.3,13.1
			c0.1,0,0.1,0,0.2,0c0.1,0,0.1,0,0.2,0c26.2,0,26.3-13.1,52.3-13.1c26.1,0.1,26.1,13.1,52.3,13.1v0c0.1,0,0.3,0,0.4,0
			c24.1,0,26.1-11,46.5-12.9c3.4-0.3,6-3.1,6-6.5C460.4,404.2,457.1,401.1,453.3,401.5z"/>
		<path fill="#00533C" d="M453.3,454.1c-19.4,2.1-21.8,12.8-45.5,12.8c-26.3,0-26.3-13.1-52.5-13.1c-0.1,0-0.1,0-0.2,0
			c-0.1,0-0.1,0-0.2,0c-26.2,0-26.3,13-52.3,13.1c-26-0.1-26.1-13.1-52.3-13.1c-0.1,0-0.1,0-0.2,0c-0.1,0-0.1,0-0.2,0
			c-26.2,0-26.3,13-52.3,13.1c-26.1-0.1-26.1-13.1-52.3-13.1c-0.1,0-0.1,0-0.2,0c-0.1,0-0.1,0-0.2,0c-26.3,0-26.3,13.1-52.5,13.1
			c-23.7,0-26-10.7-45.5-12.8c-3.8-0.4-7.1,2.7-7.1,6.5c0,3.4,2.7,6.2,6.1,6.5C66.1,469,68.1,480,92.2,480c0.1,0,0.3,0,0.4,0v0
			c26.2,0,26.3-13.1,52.3-13.1c26,0.1,26.1,13.1,52.3,13.1c0.1,0,0.1,0,0.2,0c0.1,0,0.1,0,0.2,0c26.2,0,26.3-13.1,52.3-13.1
			c26.1,0.1,26.1,13.1,52.3,13.1c0.1,0,0.1,0,0.2,0c0.1,0,0.1,0,0.2,0c26.2,0,26.3-13.1,52.3-13.1c26.1,0.1,26.1,13.1,52.3,13.1v0
			c0.1,0,0.3,0,0.4,0c24.1,0,26.1-11,46.5-12.9c3.4-0.3,6-3.1,6-6.5C460.4,456.8,457.1,453.7,453.3,454.1z"/>
		<path fill="#00533C" d="M147.8,425.2c19.8,0,35.8-16.1,35.8-35.8c0-10.6-4.5-20.3-12.5-27.2V258.2c0-12.9-10.5-23.3-23.4-23.3
			c-12.9,0-23.4,10.5-23.4,23.3v104.1c-8,6.8-12.5,16.6-12.5,27.2C112,409.2,128.1,425.2,147.8,425.2z M131.9,368.1
			c1.2-0.9,1.8-2.2,1.8-3.7V258.2c0-7.8,6.3-14.1,14.1-14.1c7.8,0,14.1,6.3,14.1,14.1v106.3c0,1.5,0.7,2.8,1.8,3.7
			c6.8,5.1,10.7,12.8,10.7,21.3c0,14.7-12,26.6-26.6,26.6s-26.6-12-26.6-26.6C121.2,381,125.1,373.2,131.9,368.1z"/>
		<path fill="#00533C" d="M147.8,403.4c7.7,0,14-6.3,14-14c0-6.1-3.9-11.1-9.4-13v-80.7c0-2.6-2.1-4.6-4.6-4.6
			c-2.5,0-4.6,2.1-4.6,4.6v80.7c-5.4,1.9-9.4,7-9.4,13C133.9,397.1,140.1,403.4,147.8,403.4z M147.8,384.6c2.6,0,4.8,2.1,4.8,4.8
			c0,2.6-2.1,4.8-4.8,4.8s-4.8-2.1-4.8-4.8C143.1,386.8,145.2,384.6,147.8,384.6z"/>
		<path fill="#00533C" d="M185.3,262.8h12.5c2.5,0,4.6-2.1,4.6-4.6c0-2.5-2.1-4.6-4.6-4.6h-12.5c-2.6,0-4.6,2.1-4.6,4.6
			C180.7,260.7,182.8,262.8,185.3,262.8z"/>
		<path fill="#00533C" d="M185.3,300.3h25c2.6,0,4.6-2.1,4.6-4.6c0-2.5-2.1-4.6-4.6-4.6h-25c-2.5,0-4.6,2.1-4.6,4.6
			C180.7,298.2,182.8,300.3,185.3,300.3z"/>
		<path fill="#00533C" d="M185.3,337.8h12.5c2.5,0,4.6-2.1,4.6-4.6c0-2.6-2.1-4.6-4.6-4.6h-12.5c-2.6,0-4.6,2.1-4.6,4.6
			C180.7,335.7,182.8,337.8,185.3,337.8z"/>
	</g>
</g>
<g id="piscien_couverte" display="none">
	<g display="inline">
		<path fill="#00533C" d="M51.1,334.8c3.6,0,6.5-2.9,6.5-6.5c0-82.8,93.7-161.2,192.7-161.2c110.3,0,192.7,85.1,192.7,161.2
			c0,3.6,2.9,6.5,6.5,6.5c3.6,0,6.5-2.9,6.5-6.5c0-99.7-108.6-174.1-205.7-174.1c-105.7,0-205.7,84.6-205.7,174.1
			C44.7,331.9,47.6,334.8,51.1,334.8z"/>
		<path fill="#00533C" d="M453.3,454.1c-19.5,2.1-21.8,12.8-45.5,12.8c-26.3,0-26.3-13.1-52.5-13.1c-0.1,0-0.1,0-0.2,0
			c-0.1,0-0.1,0-0.2,0c-26.2,0-26.3,13-52.3,13.1c-26-0.1-26.1-13.1-52.3-13.1c-0.1,0-0.1,0-0.2,0c-0.1,0-0.1,0-0.2,0
			c-26.2,0-26.3,13-52.3,13.1c-26-0.1-26.1-13.1-52.3-13.1c-0.1,0-0.1,0-0.2,0c-0.1,0-0.1,0-0.2,0c-26.3,0-26.3,13.1-52.5,13.1
			c-23.7,0-26-10.7-45.5-12.8c-3.8-0.4-7.1,2.7-7.1,6.5c0,3.4,2.6,6.2,6.1,6.5C66.1,469,68.1,480,92.2,480c0.2,0,0.2,0,0.4,0v0
			c26.2,0,26.3-13.1,52.3-13.1c26,0.1,26.1,13.1,52.3,13.1c0.1,0,0.1,0,0.2,0c0.1,0,0.1,0,0.2,0c26.2,0,26.3-13.1,52.3-13.1
			c26,0.1,26.1,13.1,52.3,13.1c0.1,0,0.1,0,0.2,0c0.1,0,0.1,0,0.2,0c26.2,0,26.3-13.1,52.3-13.1c26,0.1,26.1,13.1,52.3,13.1v0
			c0.2,0,0.3,0,0.4,0c24.1,0,26.1-11,46.5-12.9c3.4-0.3,6.1-3.1,6.1-6.5C460.4,456.8,457.1,453.7,453.3,454.1z"/>
		<path fill="#00533C" d="M453.3,348.5c-19.5,2.1-21.8,12.8-45.5,12.8c-26.3,0-26.3-13.1-52.5-13.1c-0.1,0-0.1,0-0.2,0
			c-0.1,0-0.1,0-0.2,0c-19.7,0-24.6,7.4-37,11.1V266c0-6.9,1.7-13.2,4.9-18.3c5.2-8.1,13-12.3,23.2-12.3c27.3,0,29,23.8,29,24.1
			c0,3.6,2.9,6.5,6.5,6.5c3.6,0,6.5-2.9,6.5-6.5c0-7.8-7.1-37-41.9-37c-18.6,0-28.8,9.9-34.1,18.3c-4.5,7.1-6.9,15.8-6.9,25.2v15.2
			h-95.2V266c0-6.9,1.7-13.2,4.9-18.3c5.2-8.1,13-12.3,23.2-12.3c27.3,0,29,23.8,29,24.1c0,3.6,2.9,6.5,6.5,6.5
			c3.6,0,6.5-2.9,6.5-6.5c0-7.8-7.1-37-41.9-37c-18.5,0-28.8,9.9-34.1,18.3c-4.5,7.1-6.9,15.9-6.9,25.2v95.3
			c-25.2-0.3-25.7-13.1-51.6-13.1c-0.1,0-0.1,0-0.2,0c-0.1,0-0.1,0-0.2,0c-26.3,0-26.3,13.1-52.5,13.1c-23.7,0-26-10.7-45.5-12.8
			c-3.8-0.4-7.1,2.7-7.1,6.5c0,3.4,2.6,6.2,6.1,6.5c20.4,1.9,22.4,12.9,46.5,12.9c0.2,0,0.2,0,0.4,0v0c26.2,0,26.3-13,52.3-13.1
			c26,0.1,26.1,13.1,52.3,13.1h0.4c26.2,0,26.3-13,52.3-13.1c26,0.1,26.1,13.1,52.3,13.1h0.4c26.2,0,26.3-13,52.3-13.1
			c26,0.1,26.1,13.1,52.3,13.1v0c0.2,0,0.3,0,0.4,0c24.1,0,26.1-11,46.5-12.9c3.4-0.3,6.1-3.1,6.1-6.5
			C460.4,351.2,457.1,348.1,453.3,348.5z M209.7,294.1h95.2v27.1h-95.2V294.1z M302.5,361.3c-26-0.1-26.1-13.1-52.3-13.1
			c-0.1,0-0.1,0-0.2,0c-0.1,0-0.1,0-0.2,0c-21.2,0-25.5,8.5-40.1,11.8v-25.8h31c-3.1-2.4-1.5-9.1,3.8-9.1c5.3,0,5.5,6.7,1.9,9.1
			h58.5V361c0,0.1,0,0.1,0,0.2C304.1,361.2,303.4,361.3,302.5,361.3z"/>
		<path fill="#00533C" d="M453.3,401.5c-19.5,2.1-21.8,12.8-45.5,12.8c-26.3,0-26.3-13.1-52.5-13.1c-0.1,0-0.1,0-0.2,0
			c-0.1,0-0.1,0-0.2,0c-26.2,0-26.3,13-52.3,13.1c-26-0.1-26.1-13.1-52.3-13.1c-0.1,0-0.1,0-0.2,0c-0.1,0-0.1,0-0.2,0
			c-26.2,0-26.3,13-52.3,13.1c-26-0.1-26.1-13.1-52.3-13.1c-0.1,0-0.1,0-0.2,0c-0.1,0-0.1,0-0.2,0c-26.3,0-26.3,13.1-52.5,13.1
			c-23.7,0-26-10.7-45.5-12.8c-3.8-0.4-7.1,2.7-7.1,6.5c0,3.4,2.6,6.2,6.1,6.5c20.4,1.8,22.4,12.9,46.5,12.9c0.2,0,0.2,0,0.4,0v0
			c26.2,0,26.3-13.1,52.3-13.1c26,0.1,26.1,13.1,52.3,13.1c0.1,0,0.1,0,0.2,0c0.1,0,0.1,0,0.2,0c26.2,0,26.3-13.1,52.3-13.1
			c26,0.1,26.1,13.1,52.3,13.1c0.1,0,0.1,0,0.2,0c0.1,0,0.1,0,0.2,0c26.2,0,26.3-13.1,52.3-13.1c26,0.1,26.1,13.1,52.3,13.1v0
			c0.2,0,0.3,0,0.4,0c24.1,0,26.1-11,46.5-12.9c3.4-0.3,6.1-3.1,6.1-6.5C460.4,404.3,457.1,401.1,453.3,401.5z"/>
	</g>
</g>
<g id="piscine" display="none">
	<g display="inline">
		<path fill="#00533C" d="M453.3,454.1c-19.5,2.1-21.8,12.8-45.5,12.8c-26.3,0-26.3-13.1-52.5-13.1c-0.1,0-0.1,0-0.2,0
			c-0.1,0-0.1,0-0.2,0c-26.2,0-26.3,13-52.3,13.1c-26-0.1-26.1-13.1-52.3-13.1c-0.1,0-0.1,0-0.2,0c-0.1,0-0.1,0-0.2,0
			c-26.2,0-26.3,13-52.3,13.1c-26-0.1-26.1-13.1-52.3-13.1c-0.1,0-0.1,0-0.2,0s-0.1,0-0.2,0c-26.3,0-26.3,13.1-52.5,13.1
			c-23.7,0-26-10.7-45.5-12.8c-3.8-0.4-7.1,2.7-7.1,6.5c0,3.4,2.7,6.2,6.1,6.5C66.1,469,68.1,480,92.2,480c0.2,0,0.3,0,0.4,0v0
			c26.2,0,26.3-13.1,52.3-13.1c26,0.1,26.1,13.1,52.3,13.1c0.1,0,0.1,0,0.2,0c0.1,0,0.1,0,0.2,0c26.2,0,26.3-13.1,52.3-13.1
			c26,0.1,26.1,13.1,52.3,13.1c0.1,0,0.1,0,0.2,0c0.1,0,0.1,0,0.2,0c26.2,0,26.3-13.1,52.3-13.1c26,0.1,26.1,13.1,52.3,13.1v0
			c0.2,0,0.3,0,0.4,0c24.1,0,26.1-11,46.5-12.9c3.4-0.3,6.1-3.1,6.1-6.5C460.4,456.8,457.1,453.7,453.3,454.1z"/>
		<path fill="#00533C" d="M453.3,401.5c-19.5,2.1-21.8,12.8-45.5,12.8c-26.3,0-26.3-13.1-52.5-13.1c-0.1,0-0.1,0-0.2,0
			c-0.1,0-0.1,0-0.2,0c-26.2,0-26.3,13-52.3,13.1c-26-0.1-26.1-13.1-52.3-13.1c-0.1,0-0.1,0-0.2,0c-0.1,0-0.1,0-0.2,0
			c-26.2,0-26.3,13-52.3,13.1c-26-0.1-26.1-13.1-52.3-13.1c-0.1,0-0.1,0-0.2,0s-0.1,0-0.2,0c-26.3,0-26.3,13.1-52.5,13.1
			c-23.7,0-26-10.7-45.5-12.8c-3.8-0.4-7.1,2.7-7.1,6.5c0,3.4,2.7,6.2,6.1,6.5c20.4,1.8,22.4,12.9,46.5,12.9c0.2,0,0.3,0,0.4,0v0
			c26.2,0,26.3-13.1,52.3-13.1c26,0.1,26.1,13.1,52.3,13.1c0.1,0,0.1,0,0.2,0c0.1,0,0.1,0,0.2,0c26.2,0,26.3-13.1,52.3-13.1
			c26,0.1,26.1,13.1,52.3,13.1c0.1,0,0.1,0,0.2,0c0.1,0,0.1,0,0.2,0c26.2,0,26.3-13.1,52.3-13.1c26,0.1,26.1,13.1,52.3,13.1v0
			c0.2,0,0.3,0,0.4,0c24.1,0,26.1-11,46.5-12.9c3.4-0.3,6.1-3.1,6.1-6.5C460.4,404.3,457.1,401.1,453.3,401.5z"/>
		<path fill="#00533C" d="M45.7,361.5c20.4,1.9,22.4,12.9,46.5,12.9c0.2,0,0.3,0,0.4,0v0c26.2,0,26.3-13,52.3-13.1
			c26,0.1,26.1,13.1,52.3,13.1c0.1,0,0.1,0,0.2,0c0.1,0,0.1,0,0.2,0c26.2,0,26.3-13,52.3-13.1c26,0.1,26.1,13.1,52.3,13.1
			c0.1,0,0.1,0,0.2,0c0.1,0,0.1,0,0.2,0c26.2,0,26.3-13,52.3-13.1c26,0.1,26.1,13.1,52.3,13.1v0c0.2,0,0.3,0,0.4,0
			c24.1,0,26.1-11,46.5-12.9c3.4-0.3,6.1-3.1,6.1-6.5c0-3.8-3.3-6.9-7.1-6.5c-19.5,2.1-21.8,12.8-45.5,12.8
			c-26.3,0-26.3-13.1-52.5-13.1c-0.1,0-0.1,0-0.2,0c-0.1,0-0.1,0-0.2,0c-19.7,0-24.6,7.4-37,11.1V266c0-6.9,1.7-13.2,4.9-18.3
			c5.2-8.1,13-12.3,23.2-12.3c27.3,0,29,23.8,29,24.1c0,3.6,2.9,6.5,6.5,6.5c3.6,0,6.5-2.9,6.5-6.5c0-7.8-7.1-37-41.9-37
			c-18.5,0-28.8,9.9-34.1,18.3c-4.5,7.1-6.9,15.8-6.9,25.2v15.2h-95.2V266c0-6.9,1.7-13.2,4.9-18.3c5.2-8.1,13-12.3,23.2-12.3
			c27.3,0,29,23.8,29,24.1c0,3.6,2.9,6.5,6.5,6.5c3.6,0,6.5-2.9,6.5-6.5c0-7.8-7.1-37-41.9-37c-18.5,0-28.8,9.9-34.1,18.3
			c-4.5,7.1-6.9,15.9-6.9,25.2v95.3c-25.2-0.3-25.7-13.1-51.6-13.1c-0.1,0-0.1,0-0.2,0s-0.1,0-0.2,0c-26.3,0-26.3,13.1-52.5,13.1
			c-23.7,0-26-10.7-45.5-12.8c-3.8-0.4-7.1,2.7-7.1,6.5C39.6,358.5,42.3,361.2,45.7,361.5z M302.5,361.3
			c-26-0.1-26.1-13.1-52.3-13.1c-0.1,0-0.1,0-0.2,0c-0.1,0-0.1,0-0.2,0c-21.2,0-25.5,8.5-40.1,11.8v-25.8h95.2V361
			c0,0.1,0,0.1,0,0.2C304.1,361.2,303.4,361.3,302.5,361.3z M304.9,294.1v27.1h-95.2v-27.1H304.9z"/>
	</g>
</g>
<g id="épicerie" display="none">
	<g display="inline">
		<path fill="#00533C" d="M437.5,260.4H62.5c-3.6,0-6.5,2.9-6.5,6.5v27.3c0,3.6,2.9,6.5,6.5,6.5h10.9l31.7,174
			c0.5,3.1,3.2,5.3,6.4,5.3h277.2c3.1,0,5.8-2.2,6.4-5.3l31.6-174h10.9c3.6,0,6.5-2.9,6.5-6.5v-27.3
			C444,263.3,441.1,260.4,437.5,260.4z M383.2,467.1H116.8L86.5,300.6h326.9L383.2,467.1z M431.1,287.7h-9.8H78.8H69v-14.3h362.1
			V287.7z"/>
		<path fill="#00533C" d="M111.4,235.4c1.7,0,3.3-0.6,4.6-1.9l97.8-97.8c2.5-2.5,2.5-6.6,0-9.1c-2.5-2.5-6.6-2.5-9.2,0l-97.8,97.8
			c-2.6,2.6-2.6,6.6,0,9.2C108.1,234.8,109.7,235.4,111.4,235.4z"/>
		<path fill="#00533C" d="M384,233.5c1.3,1.3,2.9,1.9,4.6,1.9s3.3-0.6,4.6-1.9c2.5-2.5,2.5-6.6,0-9.2l-97.8-97.8
			c-2.6-2.5-6.6-2.5-9.2,0c-2.6,2.5-2.6,6.6,0,9.1L384,233.5z"/>
		<path fill="#00533C" d="M282.3,431.1c3.6,0,6.5-2.9,6.5-6.5v-97.8c0-3.6-2.9-6.5-6.5-6.5c-3.6,0-6.5,2.9-6.5,6.5v97.8
			C275.9,428.2,278.8,431.1,282.3,431.1z"/>
		<path fill="#00533C" d="M347,431.1c3.6,0,6.5-2.9,6.5-6.5v-97.8c0-3.6-2.9-6.5-6.5-6.5s-6.5,2.9-6.5,6.5v97.8
			C340.5,428.2,343.4,431.1,347,431.1z"/>
		<path fill="#00533C" d="M217.7,431.1c3.6,0,6.5-2.9,6.5-6.5v-97.8c0-3.6-2.9-6.5-6.5-6.5c-3.6,0-6.5,2.9-6.5,6.5v97.8
			C211.2,428.2,214.1,431.1,217.7,431.1z"/>
		<path fill="#00533C" d="M153,431.1c3.6,0,6.5-2.9,6.5-6.5v-97.8c0-3.6-2.9-6.5-6.5-6.5c-3.6,0-6.5,2.9-6.5,6.5v97.8
			C146.5,428.2,149.4,431.1,153,431.1z"/>
	</g>
</g>
<g id="demi-pension" display="none">
	<g display="inline">
		<path fill="#00533C" d="M442.2,395.6l-29.5-29.5c10.9-24.1,16.9-50.6,16.9-77.7c0-57.9-26.1-109.3-67.6-143.7
			c-2-0.7-3.5-1.8-4.9-3.1c-3.1-1.5-4.9-3.8-7.6-6c-1.2-0.8-2.7-1.5-3.6-2.6c-0.7-0.5-1.4-1-2-1.7c-29.4-18.4-64-29.7-101.1-29.7
			c-36.9,0-71.5,10.6-100.8,29.5c-1,0.7-2.1,1.3-3.1,2c-0.3,0.2-0.7,0.4-1,0.6c-0.4,0.3-0.9,0.6-1.4,0.9c-1.7,1.3-3.5,2.6-5.4,3.7
			c-3,3.3-6.3,6.3-10.1,8.7c-40,34.3-65,84.7-65,141.4c0,56.1,24.4,106,63.6,140.3c1.7,1.8,4.7,4.6,6.3,5.7c2.7,2.1,9.1,6,11.9,8.3
			c3.9,2.4,7.3,4.3,10.8,6.7c27.9,16.6,59.8,25.9,94.8,25.9c28.3,0,55.4-6,80.7-18.1l11.4,13.3c5.4,6,12.7,9.6,21.1,9.6h0.6
			c7.8,0,15.1-3,20.5-8.4c5.4-5.4,9-13.2,8.4-21.7c0-1.6-0.4-2.7-0.5-4.2c-0.3-0.5-0.5-1-0.7-1.6c-0.7-2.5-2.2-5.4-4-8.4
			c-0.7-1.3-1-2.4-2.6-4c-0.8-1-1.7-2.1-2.5-2.9l-5.4-4.8c8.4-7.8,15.7-16.3,22.9-25.3l22.9,22.9c1.2,1.2,2.4,1.8,4.2,1.8
			c1.8,0,3-0.6,4.2-1.8l17.5-17.5C444.6,401.7,444.6,398.1,442.2,395.6z M242.8,463.1c-96.4,0-174.7-78.3-174.7-174.7
			c0-96.4,78.3-174.7,174.7-174.7c96.4,0,174.7,78.3,174.7,174.7c0,24.1-4.8,47-13.9,68.7l-38-38c2.4-10.2,3.6-20.5,3.6-30.7
			c0-69.9-56.6-126.5-126.5-126.5c-69.9,0-126.5,56.6-126.5,126.5c0,69.9,56.6,126.5,126.5,126.5c13.3,0,25.9-2.4,38.6-6l33.7,38.6
			C292.2,457.7,268.1,463.1,242.8,463.1z M374.1,449.9c0.6,4.8-1.8,9.6-5.4,13.3c-3.6,3.6-7.8,4.8-12.7,4.8c-4.8,0-9-2.4-12-6
			L235.6,337.8c-0.6-0.6-1.2-1.2-2.4-1.8c-0.6,0-60.3-23.5-83.7-66.3c-1.8-3-5.4-4.2-8.4-2.4c-3,1.8-4.2,5.4-2.4,8.4
			c23.5,43.4,78.3,66.9,88.6,71.1l45.2,51.8c-9.6,2.4-19.9,4.2-30.1,4.2c-63.3,0-114.5-51.2-114.5-114.5
			c0-63.3,51.2-114.5,114.5-114.5c63.2,0,114.5,51.2,114.5,114.5c0,7.2-0.6,13.9-1.8,20.5L240.4,194.4c-6-6-14.5-7.2-21.1-3
			c-7.8,4.8-11.4,14.5-8.4,24.1c6,18.7,14.5,34.9,36.2,57.2c42.2,42.2,77.1,60.3,83.1,63.3l10.8,10.8c-6.6,11.4-15.1,21.1-25.3,29.5
			L253,320.9c-3.6-10.2-27.1-65.7-71.7-88c-3-1.2-6.6,0-7.8,3c-1.2,3,0,6.6,3,7.8c40.9,20.2,63.1,73.8,65.9,81.6
			c0.6-0.2,1.3-0.4,2-0.4c4.1,0,5.2,4.1,3.7,7l119.9,105.8C371.7,440.8,373.5,445,374.1,449.9z M342.2,313.7l-5.4,5.4l-4.2,4.2
			c-10.2-5.4-41-23.5-77.1-59c-22.3-22.3-28.9-38.6-33.1-52.4c-1.2-4.2,0.6-8.4,3.6-9.6c0.6-0.6,1.8-0.6,2.4-0.6
			c1.2,0,2.4,0.6,3.6,1.8L342.2,313.7z M362.1,416.8l-36.8-31.9c9.6-8.4,18.1-18.1,24.7-28.9l34.9,34.3
			C378.3,399.9,370.5,408.3,362.1,416.8z M420.5,408.9l-78.3-78.3l8.4-8.4l78.3,78.3L420.5,408.9z"/>
		<path fill="#00533C" d="M165.5,251.8c-1.8-1.8-5.4-1.8-7.2,0c-1.8,1.8-1.8,5.4,0,7.2l51.8,51.8c1.2,1.2,2.4,1.8,3.6,1.8
			s2.4-0.6,3.6-1.8c1.8-1.8,1.8-5.4,0-7.2L165.5,251.8z"/>
	</g>
</g>
<g id="restauration" display="none">
	<path display="inline" fill="#00533C" d="M411.7,201.9c0-29.5-15.6-53.5-41.7-64.3c-17.5-7.2-36.4-6.7-50.4,0.9
		C313.3,114.5,287.9,92,250,92c-37.9,0-63.3,22.5-69.6,46.6c-14-7.6-32.9-8.2-50.4-0.9c-26.1,10.8-41.7,34.9-41.7,64.3
		c0,34.2,31.8,55.5,64.7,58v148.9c0,0,0,0,0,0c0,0,0,0,0,0v64.7c0,3.6,2.9,6.5,6.5,6.5h181.1c3.6,0,6.5-2.9,6.5-6.5v-64.6
		c0,0,0,0,0-0.1c0,0,0-0.1,0-0.1V259.9C379.8,257.4,411.7,236.1,411.7,201.9z M334.1,467.1H165.9v-51.7h168.1V467.1z M340.5,247.2
		c-3.6,0-6.5,2.9-6.5,6.5v148.7h-38.8v-58.2c0-3.6-2.9-6.5-6.5-6.5s-6.5,2.9-6.5,6.5v58.2h-25.8v-71.1c0-3.6-2.9-6.5-6.5-6.5
		c-1.1,0-2.2,0.3-3.1,0.8c3.7,2.1,2.1,9.3-3.3,9.4v67.4h-25.8v-58.2c0-3.6-2.9-6.5-6.5-6.5c-3.6,0-6.5,2.9-6.5,6.5v58.2h-38.8V253.7
		c0-3.6-2.9-6.5-6.5-6.5c-28.6,0-58.2-16.9-58.2-45.3c0-24,12.6-43.6,33.7-52.3c17.2-7.1,35.6-5,45.8,5.2c1.9,1.8,4.6,2.4,7,1.4
		c2.4-1,4-3.4,4-6c0-21.8,22.2-45.3,58.2-45.3c35.9,0,58.2,23.5,58.2,45.3c0,2.6,1.6,5,4,6c2.4,1,5.2,0.5,7.1-1.4
		c10.2-10.2,28.6-12.3,45.8-5.2c21.1,8.7,33.7,28.3,33.7,52.3C398.7,230.3,369.1,247.2,340.5,247.2z"/>
</g>
<g id="barbecue" display="none">
	<g display="inline">
		<path fill="#00533C" d="M315,259.3c61-2.7,103.1-43.7,103.1-101.8c0-58-42-99-102.9-101.7v-8.5c0-3.6-2.9-6.5-6.5-6.5
			c-3.6,0-6.5,2.9-6.5,6.5V62l0,0v184.5h-214c-3.6,0-6.5,2.9-6.5,6.5c0,52,25.7,93.5,65.5,112.6l-21.3,106.5
			c-0.7,3.5,1.6,6.9,5.1,7.6c0.4,0.1,0.9,0.1,1.3,0.1c3,0,5.7-2.1,6.3-5.2l13.7-68.3h96.2l0.7,2.7c-15.9,3.7-27.8,17.9-27.8,34.9
			c0,19.8,16.1,35.9,35.9,35.9c19.8,0,35.9-16.1,35.9-35.9c0-18-13.4-32.8-30.7-35.3l-11-44C288.7,346.2,313,307.6,315,259.3z
			 M405.2,157.6c0,51.3-35.9,86.3-89.9,88.9V68.7C369.3,71.2,405.2,106.3,405.2,157.6z M95,259.6h207.2
			c-2.8,61-45.5,104.6-103.6,104.6C140.5,364.2,97.8,320.6,95,259.6z M280.3,444.1c0,12.6-10.3,22.9-22.9,22.9
			c-12.6,0-22.9-10.3-22.9-22.9s10.3-22.9,22.9-22.9C270,421.2,280.3,431.5,280.3,444.1z M245.4,393.6H155l4.6-22.9
			c12.1,4.1,25.1,6.4,39,6.4c14.6,0,28.3-2.6,40.9-7.1L245.4,393.6z"/>
		<path fill="#00533C" d="M103,215.5h176.4c3.6,0,6.5-2.9,6.5-6.5c0-3.6-2.9-6.5-6.5-6.5H103c-3.6,0-6.5,2.9-6.5,6.5
			C96.6,212.6,99.5,215.5,103,215.5z"/>
	</g>
</g>
<g id="spacieux" display="none">
	<g display="inline">
		<path fill="#00533C" d="M405.1,92H94.8C73.4,92,56,109.4,56,130.9v310.3c0,21.4,17.4,38.8,38.8,38.8h310.3
			c21.4,0,38.8-17.4,38.8-38.8V130.9C444,109.4,426.6,92,405.1,92z M431,441.2c0,14.3-11.6,25.9-25.9,25.9H94.8
			c-14.3,0-25.9-11.6-25.9-25.9V130.9c0-14.3,11.6-25.9,25.9-25.9h310.3c14.3,0,25.9,11.6,25.9,25.9V441.2z"/>
		<path fill="#00533C" d="M131.5,424.8h-6.1l253.7-253.7v6c0,5.8,7.1,8.8,11.3,4.6c1.2-1.2,1.9-2.9,1.9-4.6v-21.7
			c0-3.6-2.9-6.6-6.6-6.6h-21.7c-1.7,0-3.4,0.7-4.7,1.9c-4.1,4.2-1.2,11.3,4.7,11.3h6L116.2,415.7v-6.1c0-5.9-7.2-8.9-11.4-4.7
			c-1.2,1.3-1.9,2.9-1.9,4.7v22c0,3.7,3,6.7,6.6,6.7h21.9c1.8,0,3.5-0.7,4.7-2C140.4,432,137.4,424.8,131.5,424.8z"/>
		<path fill="#00533C" d="M278.9,408.9l15.1-20.5c2.1-2.9,1.5-6.9-1.4-9.1c-2.9-2.1-7-1.5-9.1,1.4L271,397.9l-12.3-17.1
			c-2.1-2.9-6.1-3.5-9-1.5c-2.9,2.1-3.5,6.1-1.5,9l14.7,20.4l-15.8,21.3c-2.1,2.9-1.5,6.9,1.4,9.1c1.1,0.9,2.5,1.3,3.8,1.3
			c2,0,3.9-0.9,5.2-2.6l13.3-18l12.9,17.9c1.3,1.8,3.3,2.7,5.3,2.7c1.3,0,2.6-0.4,3.8-1.2c2.9-2.1,3.5-6.1,1.5-9L278.9,408.9z"/>
		<path fill="#00533C" d="M336.2,408.9l15.1-20.5c2.1-2.9,1.5-6.9-1.3-9.1c-2.9-2.1-6.9-1.5-9.1,1.4l-12.7,17.1l-12.3-17.1
			c-2.1-2.9-6.1-3.5-9-1.5c-2.9,2.1-3.5,6.1-1.5,9l14.7,20.4l-15.8,21.3c-2.1,2.9-1.5,6.9,1.4,9.1c1.2,0.9,2.5,1.3,3.8,1.3
			c2,0,4-0.9,5.2-2.6l13.3-18l12.9,17.9c1.3,1.8,3.3,2.7,5.3,2.7c1.3,0,2.6-0.4,3.8-1.2c2.9-2.1,3.5-6.1,1.5-9L336.2,408.9z"/>
		<path fill="#00533C" d="M396.9,427.5h-22.1v-42.9c0-3.6-2.9-6.5-6.5-6.5c-3.6,0-6.5,2.9-6.5,6.5V434c0,0,0,0,0,0
			c0,3.6,2.9,6.5,6.5,6.5h28.6c3.6,0,6.5-2.9,6.5-6.5C403.4,430.5,400.5,427.5,396.9,427.5z"/>
	</g>
</g>
<g id="accès_eau" display="none">
	<g display="inline">
		<path fill="#00533C" d="M385.7,383.1c-1-1.9-2.9-3.1-5.1-3.1h0c-2.1,0-4.1,1.1-5.1,3c-0.7,1.3-17.5,32.3-22.2,56.4
			c-3,15.8,1.5,25.4,5.8,30.6c5.2,6.3,13.1,10,21.5,10c8.3,0,16-3.6,21.2-9.8c4.3-5.2,8.9-14.8,6-30.7
			C403.8,417.4,386.5,384.5,385.7,383.1z M392.9,462.8c-3,3.5-7.5,5.6-12.3,5.6c-4.9,0-9.5-2.1-12.5-5.7c-3.9-4.7-5.1-12-3.3-21
			c2.8-14.4,10.5-32,15.8-42.9c5.4,11.3,13.5,29.6,15.9,42.8C398.1,450.7,396.9,458.1,392.9,462.8z"/>
		<path fill="#00533C" d="M405.8,298v-8.9c0-46.1-37.5-83.6-83.6-83.6h-20.9c-6.6-14.5-17.7-26.4-31.5-34.1
			c2.9-3.2,4.7-7.6,4.7-12.3v-6.9c0-10.7-8.7-19.5-19.4-19.5h-3v-30.5h25c10.2,0,18.4-8.3,18.4-18.4v-4.8c0-10.7-8.7-19.5-19.5-19.5
			h-85.1c-10.7,0-19.5,8.7-19.5,19.5v4.8c0,10.2,8.3,18.4,18.4,18.4h25v30.5h-3c-10.7,0-19.5,8.7-19.5,19.5v6.9
			c0,4.7,1.8,9,4.7,12.3c-13.8,7.7-24.8,19.6-31.5,34.1h-40.2v-33.6c0-10.2-8.3-18.4-18.4-18.4H96.2c-10.7,0-19.5,8.7-19.5,19.4
			v127.1c0,10.7,8.7,19.5,19.5,19.5h11.1c10.2,0,18.4-8.3,18.4-18.4v-33.6h40.2c12.1,26.6,38.3,43.5,67.8,43.5
			c29.5,0,55.7-16.9,67.8-43.5h20.9c11.9,0,21.5,9.7,21.5,21.5v9.5c-8.4,2.4-14.4,9.8-14.4,18.7v11.1c0,10.2,8.3,18.4,18.4,18.4
			h57.1c10.1,0,18.4-8.2,18.4-18.4v-11.1C423.3,307.3,415.6,299.1,405.8,298z M411.7,328.4c0,3.8-3,6.8-6.8,6.8h-57.1
			c-3.8,0-6.8-3-6.8-6.8v-11.1c0-4.3,3.7-7.9,8.2-7.9c3.2,0,6.2-2.6,6.2-5.8v-14.5c0-18.3-14.9-33.1-33.1-33.1h-24.7
			c-2.4,0-4.5,1.5-5.4,3.7c-9.6,24.2-32.6,39.9-58.6,39.9s-49-15.7-58.5-39.9c-0.9-2.2-3-3.7-5.4-3.7h-49.8c-3.2,0-5.8,2.6-5.8,5.8
			v39.4c0,3.8-3,6.8-6.8,6.8H96.2c-4.3,0-7.9-3.5-7.9-7.9h0V173c0-4.3,3.5-7.9,7.9-7.9h11.1c3.8,0,6.8,3.1,6.8,6.8v39.4
			c0,3.2,2.6,5.8,5.8,5.8h49.8c2.4,0,4.5-1.5,5.4-3.7c6.7-16.9,20.4-30.2,37.5-36.2c2.6-0.9,4.2-3.6,3.8-6.4
			c-0.4-2.8-2.8-4.8-5.5-4.9c-3.7-0.1-6.6-3.1-6.6-6.8v-6.9c0-4.3,3.5-7.9,7.9-7.9h8.8c3.2,0,5.8-2.6,5.8-5.8v-42
			c0-3.2-2.6-5.8-5.8-5.8H190c-3.8,0-6.8-3-6.8-6.8v-4.8c0-4.3,3.5-7.9,7.9-7.9h85.1c4.3,0,7.9,3.5,7.9,7.9v4.8
			c0,3.8-3.1,6.8-6.8,6.8h-30.8c-3.2,0-5.8,2.6-5.8,5.8v42.1c0,3.2,2.6,5.8,5.8,5.8h8.8c4.3,0,7.9,3.5,7.9,7.9v6.9
			c0,3.7-2.9,6.7-6.6,6.8c-2.8,0.1-5.1,2.1-5.5,4.9c-0.4,2.8,1.1,5.4,3.8,6.4c17.2,6.1,30.8,19.3,37.5,36.3c0.9,2.2,3,3.6,5.4,3.6
			h24.7c39.7,0,72,32.3,72,72v14.5c0,3.2,2.6,5.8,5.8,5.8h3.5c4.5,0,8.2,3.5,8.2,7.9V328.4z"/>
	</g>
</g>
<g id="chauffage_elc" display="none">
	<path display="inline" fill="#00533C" d="M445.3,224.6h-31c-8.7,0.6-15.3,8.1-14.8,16.8v32h-17.6v-24c0.6-13.7-5-25.3-18.7-25.9
		c-13.7-0.6-20.3,10-21,23.7c0,0.7,0,1.5,0,2.2v24h-21.5v-24c0.6-13.7-5-25.3-18.7-25.9c-13.7-0.6-20.3,10-20.9,23.7
		c0,0.7,0,1.5,0,2.2v24h-21.9v-24c0.6-13.7-5-25.3-18.7-25.9c-13.7-0.6-20.3,10-20.9,23.7c0,0.7,0,1.5,0,2.2v24h-21.4v-24
		c0.6-13.7-5-25.3-18.7-25.9c-13.7-0.6-20.3,10-20.9,23.7c0,0.7,0,1.5,0,2.2v24h-19.6v-32c0-9.3-7.5-16.8-16.8-16.8H86.8
		c-14.4,0-26.1,11.7-26.1,26.1v18.4H47.4c-4.2,0-7.6,3.4-7.6,7.5v44.1c0,4.2,3.4,7.5,7.6,7.5h13.3v124.4c0,13.8,9,25.4,22.8,26.2
		c0.5,0.1,2.4,0.2,2.9,0.2c0,0,3.8,0.4,5.8-0.9c2.2-1.4,4.2-4,2.4-7.5c-1.4-2.6-4.8-2-7.8-2h-5c-6.1,0-11-10-11-16.1V430h22.6
		c4.2,0,7.5,1.7,7.5-2.5c0-4.2-3.4-7.5-7.5-7.5H70.7v-14.1h22.6c4.2,0,7.5,1.7,7.5-2.5c0-4.1-3.4-7.5-7.5-7.5H70.7v-14.1h22.6
		c4.2,0,7.5,1.7,7.5-2.5c0-4.2-3.4-7.5-7.5-7.5H70.7v-126c0-6.1,4.9-11.1,11-11.1H127c1,0,1.8,0.8,1.8,1.8v197.9
		c0,4.2-1.6,7.6,2.5,7.6c4.2,0,7.5-3.4,7.5-7.6v-4.1h19.8v24c0.6,13.7,7.2,24.3,20.9,23.7c12.9-0.6,18.1-10.9,18.7-23.7v-24h21.6v24
		c-0.7,16.4,9.5,29.7,26.9,25.1c4.1-1.1,5.3-2.6,8.2-5.6c5-5.3,4.9-12.8,4.6-19.4v-24H281v24c0.6,13.7,7.2,24.4,20.9,23.7
		c12.8-0.6,18.1-10.9,18.7-23.7v-24h21.5v24c-0.7,16.4,9.5,29.7,26.9,25.1c3.2-0.7,3.8-1.7,6.7-4.7c5-5.3,6.4-13.7,6.1-20.3v-24
		h17.6v4.1c0,4.2,3.4,7.6,7.5,7.6c4.2,0,2.5-3.4,2.5-7.6V236.3c0-0.6,0.1-1.2,0.4-1.8h39.7c0.3,0.6,0.4,1.1,0.4,1.8v217.8
		c0,2-0.3,6.2-0.3,6.2c0.2,5.1-2.1,15.3,2.6,17.6c0,0,7.8,3.7,7.8-15.9V241.4C460.7,232.6,454,225.1,445.3,224.6z M60.7,318.3H49.9
		v-39.1h10.8V318.3z M158.6,420h-19.7V283.4h19.7V420z M188.2,249.4V454c-0.4,5.4-5.1,14.5-10.5,14.1c-4.9-0.4-8.7-9.3-9.1-14.1
		V249.4c-0.4-5.4,3.7-15.1,9.1-15.5c5.4-0.4,10.1,8.7,10.5,14.1C188.3,248.5,188.3,248.9,188.2,249.4z M198.1,420V283.4h21.5
		l0.2,136.6H198.1z M249.1,249.4V454c0.4,5.4-3.7,15.1-9.1,15.5c-5.4,0.4-10.1-8.7-10.5-14.1c0-0.5,0-0.9,0-1.4V249.4
		c-0.4-5.4,3.7-15.1,9.1-15.5s10.1,8.7,10.5,14.1C249.1,248.5,249.1,248.9,249.1,249.4z M280.7,420h-21.5V283.4h21.5V420z
		 M310.3,249.4V454c-0.4,5.4-5.1,14.5-10.5,14.1c-4.9-0.4-8.7-9.3-9.1-14.1V249.4c-0.4-5.4,3.7-15.1,9.1-15.5
		c5.4-0.4,10.1,8.7,10.5,14.1C310.3,248.5,310.3,248.9,310.3,249.4z M341.9,420h-21.3V283.4h21.5L341.9,420z M371.5,249.4V454
		c0.4,5.4-3.7,15.1-9.1,15.5c-5.4,0.4-10.1-8.7-10.5-14.1c0-0.5,0-0.9,0-1.4V249.4c-0.4-5.4,3.7-15.1,9.1-15.5
		c5.4-0.4,10.1,8.7,10.5,14.1C371.5,248.5,371.5,248.9,371.5,249.4z M399.2,420h-17.3V283.4h17.6L399.2,420z"/>
</g>
<g id="poêle_à_bois" display="none">
	<g display="inline">
		<path fill="#00533C" d="M411.1,158.9H304.2V46.3c0-3.6-2.9-6.5-6.5-6.5c-3.6,0-6.5,2.9-6.5,6.5v119.1c0,3.6,2.9,6.5,6.5,6.5h106.9
			v295.3h-53.9H128.6H95.4V171.8h111.8c3.6,0,6.5-2.9,6.5-6.5V46.3c0-3.6-2.9-6.5-6.5-6.5c-3.6,0-6.5,2.9-6.5,6.5v112.6H88.9
			c-3.6,0-6.5,2.9-6.5,6.5v308.2c0,3.6,2.9,6.5,6.5,6.5h322.2c3.6,0,6.5-2.9,6.5-6.5V165.3C417.6,161.8,414.7,158.9,411.1,158.9z"/>
		<path fill="#00533C" d="M135.1,460.6V331.1c0-85,80.1-103.6,109.1-103.6c0.8,0,1.8-0.2,2.8-0.4c0.6,0.2,1.3,0.4,2,0.4
			c66.6,0,95,60.6,95,103.6v129.5c0,3.6,2.9,6.5,6.5,6.5c3.6,0,6.5-2.9,6.5-6.5V331.1c0-80.4-62.9-116.6-108.4-116.6
			c-0.2,0-0.3,0.1-0.5,0.1c-0.2,0-0.4-0.1-0.6-0.1c-25.9,0-56.6,9.5-77.4,25.3c-19.4,14.8-48.3,42.6-48.3,91.3v129.5
			c0,3.6,2.9,6.5,6.5,6.5C132.2,467.1,135.1,464.2,135.1,460.6z"/>
		<path fill="#00533C" d="M311.9,334.6c-2.2-0.1-4.2,0.9-5.5,2.7c-2.1,2.9-4.8,5.8-7.2,8c-0.1-11.7-1.4-29.5-8.5-37.3
			c-1.7-1.8-4.3-2.5-6.6-1.8c-2.4,0.7-4.2,2.8-4.5,5.2c0,0.1-1.3,8-7.6,16.8c-5.2-20.1-19.3-57-54.1-61.3c-2.5-0.3-5.1,0.9-6.4,3.2
			c-1.3,2.2-1.1,5.1,0.4,7.1c0.2,0.2,16,21.5,4.1,41.4c-6,10.1-8.9,20.4-8.4,30.6l0.2,3.1c-7.8-6.4-18.4-12.6-29.8-11.5
			c-2.1,0.2-4.1,1.5-5.1,3.4c-1,1.9-1,4.2,0,6.1c4.4,8.2,15.1,32.6,12.2,47.1c-2.8,14,21.3,37.7,31.8,47.2c2.7,2.4,6.7,2.2,9.1-0.4
			c2.4-2.7,2.2-6.7-0.4-9.1c-15.1-13.8-28.4-30.5-27.8-35.1c2.8-14-3.2-32.3-8-44c9,4.2,17,13,20.1,17.1c1.7,2.3,4.7,3.2,7.4,2.2
			c2.7-0.9,4.4-3.5,4.3-6.4l-1-20.2c-0.3-7.6,1.9-15.4,6.6-23.3c9-15,6.9-30.1,3-40.8c25.4,14.8,31.6,57.9,31.6,58.4
			c0.3,2.4,1.9,4.4,4.1,5.2c2.2,0.8,4.7,0.4,6.5-1.2c5.9-5.1,10.1-10.6,13.1-15.6c0.9,7.7,1,16.8,0.6,23.4c-0.2,3.3,2.1,6.2,5.3,6.8
			c7.2,1.3,14.3-3.9,19.3-9c7,14,8.5,27.4,4.6,40c-9.4,30.6-47.8,47.5-48.2,47.7c-3.3,1.4-4.8,5.2-3.4,8.5c1.1,2.4,3.4,3.9,5.9,3.9
			c0.8,0,1.7-0.2,2.6-0.5c1.8-0.8,44.2-19.4,55.5-55.7c5.8-18.7,2.3-38.4-10.4-58.6C316.1,335.8,314.1,334.7,311.9,334.6z"/>
	</g>
</g>
<g id="ensoleillé" display="none">
	<g display="inline">
		<path fill="#00533C" d="M493.4,468.9H6.6c-3.1,0-5.5,2.5-5.5,5.6c0,3.1,2.5,5.5,5.5,5.5h486.8c3.1,0,5.6-2.5,5.6-5.5
			C499,471.4,496.5,468.9,493.4,468.9z"/>
		<path fill="#00533C" d="M42.4,454.3l1.1,0c2.7-0.6,4.5-3.1,4.1-5.7l-1.4-6.8L75,406c2.1,8.5,4.1,24.1-1.8,42.1l0,3.2
			c0,0.4,0.2,0.7,0.5,0.9c0.1,0.2,0.3,0.3,0.5,0.4l1.3,1.2l0,0.5l0.3,0v0.3h1.1c0.1,0,0.2,0.1,0.4,0.1c0.3,0.1,0.5,0.2,0.8,0.2h52
			c0.3,0,0.9,0,1.4-0.3h0.1c0.6,0,1.3-0.4,1.7-0.7l0.9-0.8c0.3-0.3,0.4-0.6,0.5-0.8c0.1-0.1,0.1-0.3,0.3-0.6l19.5-57.4l19.5,57.3
			c0.1,0.4,0.3,0.9,0.6,1.2v0.3l1.1,1c0.3,0.3,0.6,0.4,0.9,0.5c0.2,0.1,0.3,0.1,0.5,0.2l0.6,0.1c0.1,0,0.3,0.1,0.4,0.1
			c0.3,0.1,0.6,0.2,0.8,0.2h52c0.3,0,0.9,0,1.4-0.3h0.1c0.3,0,0.7-0.2,0.9-0.4c0.2-0.1,0.4-0.3,0.4-0.5l1.3-1.1l0.6-0.1v-0.3h0.3
			v-2.9l-0.1-0.8c-5.9-18-3.9-33.6-1.8-42.2l28.7,35.7l-1.4,6.8c-0.3,1.1-0.1,2.2,0.5,3.2c0.7,1.3,2.1,2.2,3.8,2.6h0.9
			c2.4,0,4.5-1.5,5.2-3.8l3.8-17.5c0.5-1.6,0.3-3.1-0.5-4.3c-0.7-1.1-2-1.9-3.4-2c-1.4-0.3-2.8,0-4,0.8c-0.6,0.4-1,0.8-1.3,1.4
			L158.7,296.1v-0.3l-1.4-1.3h-0.3L157,294h-4c-0.4,0-0.7,0.2-0.9,0.5c-0.1,0-0.1,0.1-0.2,0.1h-0.2L42.9,429.3
			c-1.1-1.8-3.3-2.7-5.4-2.2c-2.7,0.6-4.5,3.1-4.1,5.8l3.8,17.5C37.6,452.5,39.9,454.3,42.4,454.3z M159.1,374.9l-0.1-0.1
			c-0.1-0.3-0.3-0.5-0.6-0.6l-1.3-1.1h-0.2c-0.2-0.1-0.4-0.3-0.8-0.3h-0.3c-0.3,0-0.3,0-0.3-0.1l-0.3-0.2h-1.2c-0.3,0-0.8,0-1.2,0.3
			c-0.2,0.1-0.4,0.2-0.6,0.4c-0.1,0.1-0.2,0.2-0.3,0.3c-0.1,0.1-0.2,0.2-0.3,0.3c-0.2,0.1-0.3,0.3-0.4,0.5l-1.3,1.1v0.2
			c-0.1,0.1-0.3,0.4-0.3,0.7l-23.3,68.7H84.6c6.1-25-0.2-44.1-1.7-48.1c0-0.2-0.1-0.3-0.2-0.4l72-89.4l71.8,89.2
			c-0.2,0.2-0.3,0.4-0.3,0.7c-1.4,3.6-8.1,22.9-2,47.8h-41.3l-23.3-68.5V376C159.6,375.4,159.4,375.2,159.1,374.9z"/>
		<path fill="#00533C" d="M240.9,236.1h75.3c1.1,10.1,5,19.2,11,26.7L274,316c-2.1,2.1-2.1,5.6,0,7.8c1.1,1.1,2.5,1.6,3.9,1.6
			c1.4,0,2.8-0.5,3.9-1.6l53.2-53.2c7.5,6,16.6,10,26.7,11v75.3c0,3,2.4,5.5,5.5,5.5s5.5-2.5,5.5-5.5v-75.3c10.1-1.1,19.2-5,26.7-11
			l53.2,53.2c1.1,1.1,2.5,1.6,3.9,1.6s2.8-0.5,3.9-1.6c2.1-2.1,2.1-5.6,0-7.8l-53.2-53.2c6-7.5,10-16.6,11-26.7h75.3
			c3,0,5.5-2.4,5.5-5.5s-2.5-5.5-5.5-5.5h-75.2c-1.1-10-5-19.2-11.1-26.7l53.2-53.2c2.1-2.1,2.1-5.6,0-7.8c-2.1-2.1-5.6-2.1-7.8,0
			l-53.1,53.1c-4.3-3.5-9.2-6.4-14.7-8.4c-3.9-1.4-8-2.2-12.1-2.6v-75.2c0-3-2.4-5.5-5.5-5.5s-5.5,2.4-5.5,5.5v75.3
			c-10.1,1.1-19.2,5-26.7,11l-53.2-53.3c-2.2-2.1-5.6-2.1-7.8,0c-2.1,2.1-2.1,5.6,0,7.8l53.3,53.3c-6,7.5-10,16.6-11,26.7h-75.3
			c-3,0-5.5,2.4-5.5,5.5S237.9,236.1,240.9,236.1z M367.2,190.1c4.8,0,9.4,0.8,13.9,2.4c15.9,5.8,26.7,21.1,26.7,38.1c0,0,0,0,0,0
			c0,0,0,0,0,0c0,22.3-18.2,40.5-40.5,40.5s-40.5-18.2-40.5-40.5S344.9,190.1,367.2,190.1z"/>
		<path fill="#00533C" d="M392.6,174.3c0.5,0.2,1.1,0.3,1.6,0.3c2,0,3.9-1.2,4.6-3.2l13.5-31.7c0.9-2.6-0.4-5.3-3-6.2
			c-2.5-0.9-5.3,0.4-6.2,3l-13.5,31.8C388.8,170.6,390.1,173.4,392.6,174.3z"/>
		<path fill="#00533C" d="M455.2,190.3L426,201c-2.4,1.2-3.4,4.1-2.2,6.5c0.8,1.7,2.6,2.7,4.4,2.7c0.7,0,1.4-0.2,2.1-0.5l29.2-10.7
			c2.4-1.2,3.4-4.1,2.2-6.5C460.5,190.1,457.6,189.1,455.2,190.3z"/>
		<path fill="#00533C" d="M429.7,253.1c-2.5-0.9-5.3,0.4-6.2,2.9c-0.9,2.5,0.4,5.3,3,6.2l31.4,13.5c0.5,0.2,1.1,0.3,1.6,0.3
			c2,0,3.9-1.2,4.6-3.2c0.9-2.5-0.4-5.3-3-6.2L429.7,253.1z"/>
		<path fill="#00533C" d="M390.3,285.6c-2.4,1.2-3.4,4.1-2.2,6.5l11.8,31.2c0.8,1.7,2.6,2.7,4.4,2.7c0.7,0,1.4-0.2,2.1-0.5
			c2.4-1.2,3.4-4.1,2.3-6.5l-11.8-31.2C395.6,285.4,392.7,284.4,390.3,285.6z"/>
		<path fill="#00533C" d="M334,292l-11.9,29.4c-0.8,2.5,0.5,5.3,3.1,6.1c0.5,0.2,1,0.3,1.5,0.3c2,0,3.9-1.3,4.6-3.3l11.9-29.4
			c0.9-2.5-0.5-5.3-3.1-6.1C337.6,288.1,334.9,289.5,334,292z"/>
		<path fill="#00533C" d="M278.9,271.1c0.7,0,1.5-0.2,2.1-0.5l27.4-10.4c2.4-1.2,3.4-4.1,2.2-6.5c-1.2-2.4-4.1-3.4-6.5-2.2
			l-27.4,10.4c-2.4,1.2-3.4,4.1-2.2,6.5C275.4,270.1,277.1,271.1,278.9,271.1z"/>
		<path fill="#00533C" d="M270.3,194.6l31.5,13.5c0.5,0.2,1.1,0.3,1.6,0.3c2,0,3.9-1.3,4.6-3.2c0.9-2.5-0.4-5.3-3-6.2l-31.5-13.5
			c-2.5-0.9-5.3,0.4-6.2,3C266.5,191,267.8,193.8,270.3,194.6z"/>
		<path fill="#00533C" d="M337.6,171.9c0.9,1.7,2.6,2.7,4.3,2.7c0.7,0,1.5-0.2,2.2-0.5c2.4-1.2,3.4-4.1,2.2-6.5l-11.5-29.2
			c-1.2-2.4-4.1-3.4-6.5-2.1c-2.4,1.2-3.3,4.1-2.1,6.5L337.6,171.9z"/>
	</g>
</g>
<g id="ombragé" display="none">
	<g display="inline">
		<path fill="#00533C" d="M493.4,468.9H6.6c-3.1,0-5.5,2.5-5.5,5.6c0,3.1,2.5,5.5,5.5,5.5h486.8c3,0,5.5-2.5,5.5-5.5
			C499,471.4,496.5,468.9,493.4,468.9z"/>
		<path fill="#00533C" d="M350.5,400L350.5,400c4.4,0,8.9-0.5,13.2-1.4c5.5-1,10.9-2.7,16-4.9v60.5c0,2.7,2.2,4.8,4.8,4.8
			c2.7,0,4.8-2.2,4.8-4.8v-60.5c6.8,3,14.1,5,21.5,5.8c2.6,0.3,5.3,0.5,7.9,0.5l0,0c20.3,0,38.7-8.3,52.1-21.6
			c13.4-13.3,21.6-31.8,21.6-52.1c0-27.3-15.2-52.2-39-65c3.2-8.3,4.8-17.1,4.8-26.1c0-40.6-33.1-73.7-73.7-73.7
			c-40.6,0-73.7,33.1-73.7,73.7c0,8.9,1.7,17.7,4.8,26.1c-5.2,2.8-9.9,6.3-14.2,10.1c-15.4,13.8-24.7,33.6-24.7,54.9
			c0,20.3,8.3,38.7,21.6,52.1C311.8,391.7,330.2,400,350.5,400z M325,268.8l5-2.3l-2.3-4.9c-0.9-1.9-1.6-3.8-2.3-5.7
			c-2.4-6.7-3.6-13.6-3.6-20.7c0-19.5,9.1-36.7,23.1-48.3c10.9-9,24.6-14.6,39.8-14.6c34.6,0,62.8,28.2,62.8,62.9
			c0,9.1-2,18-5.9,26.4l-2.3,4.9l2.5,1.1l2.5,1.1c22.7,10.1,37.3,32.7,37.3,57.4c0,34.7-28.2,62.9-62.8,62.9
			c-4.6,0-9.1-0.6-13.5-1.6c-3.6-0.8-7.1-1.8-10.5-3.2c-1.8-0.7-3.5-1.7-5.3-2.6v-9.3c0.8-0.2,1.7-0.3,2.3-1l27.6-27.6
			c1.9-1.9,1.9-5,0-6.9c-1.9-1.9-5-1.9-6.9,0l-23,23.1v-28.2l18.5-18.5c1.9-1.9,1.9-4.9,0-6.9c-1.9-1.9-4.9-1.9-6.9,0l-11.6,11.6
			v-26.9c0-2.7-2.2-4.8-4.8-4.8c-2.7,0-4.8,2.2-4.8,4.8v27L368,306.5c-1.9-1.9-4.9-1.9-6.8,0c-1.9,1.9-1.9,5,0,6.9l18.6,18.6v28.2
			l-23.1-23.2c-1.9-1.9-5-1.9-6.9,0c-1.9,1.9-1.9,5,0,6.9l27.6,27.6c0.7,0.7,1.5,0.8,2.4,1v9.3c-9.1,4.8-19.1,7.4-29.3,7.4
			c-34.7,0-62.8-28.2-62.8-62.9C287.7,301.5,302.3,278.9,325,268.8z"/>
		<path fill="#00533C" d="M42.4,454.3l1.1,0c2.7-0.6,4.5-3.1,4.1-5.7l-1.4-6.8L75,406c2.1,8.5,4.1,24.1-1.8,42.1l0,3.2
			c0,0.4,0.2,0.7,0.5,0.9c0.1,0.2,0.3,0.3,0.5,0.4l1.3,1.2l0,0.5l0.3,0v0.3h1.1c0.1,0,0.2,0.1,0.4,0.1c0.3,0.1,0.5,0.2,0.8,0.2h52
			c0.3,0,0.9,0,1.4-0.3h0.1c0.6,0,1.3-0.4,1.7-0.7l0.9-0.8c0.3-0.3,0.4-0.6,0.5-0.8c0.1-0.1,0.1-0.3,0.3-0.6l19.5-57.4l19.5,57.3
			c0.1,0.4,0.3,0.9,0.6,1.2v0.3l1.1,1c0.3,0.3,0.6,0.4,0.9,0.5c0.2,0.1,0.3,0.1,0.5,0.2l0.6,0.1c0.1,0,0.3,0.1,0.4,0.1
			c0.3,0.1,0.6,0.2,0.8,0.2h52c0.3,0,0.9,0,1.4-0.3h0.1c0.3,0,0.7-0.2,0.9-0.4c0.2-0.1,0.4-0.3,0.4-0.5l1.3-1.1l0.6-0.1v-0.3h0.3
			v-2.9l-0.1-0.8c-5.9-18-3.9-33.6-1.8-42.2l28.7,35.7l-1.4,6.8c-0.3,1.1-0.1,2.2,0.5,3.2c0.7,1.3,2.1,2.2,3.8,2.6h0.9
			c2.4,0,4.5-1.5,5.2-3.8l3.8-17.5c0.5-1.6,0.3-3.1-0.5-4.3c-0.7-1.1-2-1.9-3.4-2c-1.4-0.3-2.8,0-4,0.8c-0.6,0.4-1,0.8-1.3,1.4
			L158.7,296.1v-0.3l-1.4-1.3h-0.3L157,294h-4c-0.4,0-0.7,0.2-0.9,0.5c-0.1,0-0.1,0.1-0.2,0.1h-0.2L42.9,429.3
			c-1.1-1.8-3.3-2.7-5.4-2.2c-2.7,0.6-4.5,3.1-4.1,5.8l3.8,17.5C37.6,452.5,39.9,454.3,42.4,454.3z M154.7,307l71.8,89.2
			c-0.2,0.2-0.3,0.4-0.3,0.7c-1.4,3.6-8.1,22.9-2,47.8h-41.3l-23.3-68.5V376c0-0.6-0.2-0.8-0.6-1.1l-0.1-0.1
			c-0.1-0.3-0.3-0.5-0.6-0.6l-1.3-1.1h-0.2c-0.2-0.1-0.4-0.3-0.8-0.3h-0.3c-0.3,0-0.3,0-0.3-0.1l-0.3-0.2h-1.2c-0.3,0-0.8,0-1.2,0.3
			c-0.2,0.1-0.4,0.2-0.6,0.4c-0.1,0.1-0.2,0.2-0.3,0.3c-0.1,0.1-0.2,0.2-0.3,0.3c-0.2,0.1-0.3,0.3-0.4,0.5l-1.3,1.1v0.2
			c-0.2,0.1-0.3,0.4-0.3,0.7l-23.3,68.7H84.6c6.1-25-0.2-44.1-1.7-48.1c0-0.2-0.1-0.3-0.2-0.4L154.7,307z"/>
	</g>
</g>
<g id="sans_électricité">
	<g>
		<path fill="#00533C" d="M77.1,207.1c34.6,0,59.8,25.3,59.8,60.2c0,17.4,4.1,34.9,12.2,49.3l9.7-9.5c-5.9-11.8-9-25.9-9-39.8
			c0-42.4-30.6-73.2-72.7-73.2c-43.7,0-66,39.5-66.9,41.2c-1.7,3.1-0.6,7,2.5,8.8c3.1,1.7,7.1,0.6,8.8-2.5
			C21.7,241.3,41.2,207.1,77.1,207.1z"/>
		<path fill="#00533C" d="M267,300.3c-3.3-1.5-7.1,0-8.5,3.3c-0.6,1.4-15.9,34.5-52.8,34.5c-7,0-13.4-1.3-19.1-3.7l-10,9.8
			c8.4,4.4,18.1,6.9,29.1,6.9c45.5,0,63.9-40.5,64.7-42.2C271.8,305.6,270.3,301.8,267,300.3z"/>
		<path fill="#00533C" d="M281.2,241.5l-2.8,2.7l43.8,42.9c3.2-1.5,5.4-2.7,6.2-3.2c1.9-1.1,3.2-3.2,3.3-5.4c0.1-2.2-1-4.4-2.9-5.6
			L281.2,241.5z"/>
		<path fill="#00533C" d="M278.4,189.8c-5.1-29,8.3-59,19.8-78.4c2.7-4.5,7-7.7,12.2-8.8c1.4-0.3,2.7-0.4,4.1-0.4
			c3.9,0,7.6,1.2,10.9,3.5l22.6,15.8l9.4-9.2l-24.6-17.2c-7.3-5.1-16.4-6.9-25.1-5.1c-8.6,1.9-16.2,7.3-20.6,14.8
			c-24.3,40.9-26.7,72.4-19.7,95.9L278.4,189.8z"/>
		<path fill="#00533C" d="M447.1,219.3c6.3-6.7,9.3-15.8,8.4-24.9c-1-9.3-5.9-17.6-13.5-23l-52.2-36.5l-9.4,9.2l54.2,37.9
			c4.5,3.2,7.5,8.2,8.1,13.7c0.6,5.4-1.2,10.8-4.9,14.7c-24.8,26.4-74.3,65-127.3,27.2c-5.2-3.7-9.6-7.6-13.5-11.6l-9.2,9.1
			c5,5.3,10.3,9.6,15.2,13.1c18.7,13.3,36.8,18.6,53.8,18.6C395.3,266.8,427.9,239.8,447.1,219.3z"/>
		<path fill="#00533C" d="M353.8,96.2c1.1,0.8,2.4,1.2,3.8,1.2c2,0,4-0.9,5.3-2.7L389.7,57c2.1-2.9,1.4-6.9-1.5-9
			c-2.9-2.1-7-1.4-9,1.5l-26.9,37.7C350.2,90.1,350.8,94.1,353.8,96.2z"/>
		<path fill="#00533C" d="M321.6,140.6c-1.5,2.2-1.5,4.9-0.2,7l9-8.8C327.5,136.9,323.6,137.7,321.6,140.6z"/>
		<path fill="#00533C" d="M399.8,201c2.1,0,4.1-1,5.3-2.8c2-2.9,1.3-7-1.6-9l-40.5-28l-9.4,9.2l42.6,29.4
			C397.2,200.6,398.5,201,399.8,201z"/>
		<path fill="#00533C" d="M334.6,189.1l29.2,20.2c1.1,0.8,2.4,1.1,3.7,1.1c2.1,0,4.1-1,5.3-2.8c2-2.9,1.3-7-1.6-9L344,179.9
			L334.6,189.1z"/>
		<path fill="#00533C" d="M476.6,102c-2.8-2.2-6.9-1.8-9.1,1l-30.9,39c-2.2,2.8-1.7,6.9,1,9.1c1.2,0.9,2.6,1.4,4,1.4
			c1.9,0,3.8-0.8,5.1-2.4l30.9-39C479.8,108.3,479.4,104.2,476.6,102z"/>
		<path fill="#00533C" d="M259.9,244.2l9.2-9.1L475.7,32.5c2.6-2.5,2.6-6.6,0.1-9.2c-2.5-2.6-6.6-2.6-9.2-0.1L259.9,226.1l-9.2,9.1
			L34.8,23.2c-1.3-1.3-2.9-1.9-4.6-1.9c-1.7,0-3.3,0.7-4.6,1.9c-0.5,0.5-0.9,1-1.1,1.6c-1.3,2.5-0.9,5.5,1.2,7.6l215.8,211.7
			l-9.2,9.1L25.7,456c-2.6,2.5-2.6,6.6-0.1,9.2c1.3,1.3,2.9,1.9,4.6,1.9c1.6,0,3.3-0.6,4.5-1.9l206.7-202.8l9.2-9.1l215.9,211.9
			c1.3,1.3,2.9,1.9,4.5,1.9c1.7,0,3.4-0.7,4.6-1.9c2.5-2.6,2.5-6.7-0.1-9.2L259.9,244.2z"/>
	</g>
</g>
<g id="avec_électricité" display="none">
	<g display="inline">
		<path fill="#00533C" d="M272.8,429.3c-3.3-1.5-7.1,0-8.5,3.3c-0.6,1.4-15.9,34.5-52.8,34.5c-36.6,0-55.8-35.6-55.8-70.7
			c0-42.4-30.6-73.2-72.7-73.2c-43.7,0-66,39.5-66.9,41.2c-1.7,3.1-0.6,7,2.5,8.8c3.1,1.7,7.1,0.6,8.8-2.5
			c0.2-0.3,19.7-34.5,55.6-34.5c34.6,0,59.7,25.3,59.7,60.3c0,41.6,23.6,83.7,68.7,83.7c45.5,0,63.9-40.5,64.7-42.2
			C277.5,434.5,276.1,430.7,272.8,429.3z"/>
		<path fill="#00533C" d="M277.2,364c-1.8-1.2-4.1-1.4-6.1-0.5c-2,0.8-3.5,2.7-3.8,4.8c-4.5,25.5-0.9,42.6,10.8,50.9
			c5.4,3.8,11.7,5.2,18.1,5.2c17.2,0,35.2-10,37.9-11.5c2-1.1,3.2-3.2,3.3-5.4c0.1-2.2-1-4.4-2.9-5.6L277.2,364z M285.6,408.6
			c-5.9-4.1-8.2-13.8-6.9-28.1l39.2,25.9C307.5,410.5,293.4,414.1,285.6,408.6z"/>
		<path fill="#00533C" d="M447.7,300.4L338.6,224c-7.3-5.1-16.4-6.9-25.1-5.1c-8.6,1.9-16.1,7.3-20.6,14.8
			c-48,80.7-10.7,124.5,15.8,143.4c18.7,13.3,36.8,18.6,53.9,18.6c38.6,0,71.2-27,90.4-47.4c6.3-6.7,9.3-15.8,8.4-24.9
			C460.3,314.1,455.4,305.8,447.7,300.4z M443.4,339.4c-24.8,26.4-74.2,65-127.3,27.2c-53.3-38-30.5-95.4-12.2-126.2
			c2.7-4.5,7-7.7,12.2-8.8c1.4-0.3,2.7-0.4,4.1-0.4c3.9,0,7.6,1.2,10.9,3.5L440.3,311c4.6,3.2,7.5,8.2,8.1,13.7
			C448.9,330.1,447.1,335.5,443.4,339.4z"/>
		<path fill="#00533C" d="M363.3,226.3c2,0,4-0.9,5.3-2.7l26.9-37.7c2.1-2.9,1.4-6.9-1.5-9c-2.9-2.1-6.9-1.4-9,1.5L358,216.1
			c-2.1,2.9-1.4,7,1.5,9C360.7,226,362,226.3,363.3,226.3z"/>
		<path fill="#00533C" d="M336.4,267.9c-2.9-2-7-1.3-9,1.7c-2,2.9-1.3,7,1.6,9l72.8,50.3c1.1,0.8,2.4,1.1,3.7,1.1
			c2.1,0,4.1-1,5.3-2.8c2-2.9,1.3-7-1.6-9L336.4,267.9z"/>
		<path fill="#00533C" d="M335.2,298.8c-2.9-2-7-1.3-9,1.7c-2,2.9-1.3,7,1.6,9l41.7,28.8c1.1,0.8,2.4,1.1,3.7,1.1c2,0,4.1-1,5.3-2.8
			c2-2.9,1.3-7-1.7-9L335.2,298.8z"/>
		<path fill="#00533C" d="M482.4,230.9c-2.8-2.2-6.9-1.7-9.1,1l-30.9,39c-2.2,2.8-1.8,6.9,1,9.1c1.2,0.9,2.6,1.4,4,1.4
			c1.9,0,3.8-0.8,5.1-2.4l30.9-38.9C485.6,237.2,485.2,233.1,482.4,230.9z"/>
	</g>
</g>
<g id="table_pique-nique" display="none">
	<g display="inline">
		<path fill="#00533C" d="M120.2,307.1h259.6c3.6,0,6.5-2.9,6.5-6.5c0-3.6-2.9-6.5-6.5-6.5H120.2c-3.6,0-6.5,2.9-6.5,6.5
			C113.7,304.2,116.6,307.1,120.2,307.1z"/>
		<path fill="#00533C" d="M424.8,387.6h-86.5l-14.1-73c-0.7-3.5-4-5.8-7.6-5.1c-3.5,0.7-5.8,4.1-5.1,7.6l13.7,70.5H170.8l14.8-70.4
			c0.7-3.5-1.5-6.9-5-7.7c-3.5-0.7-6.9,1.5-7.7,5l-15.4,73.1H75.2c-3.6,0-6.5,2.9-6.5,6.5c0,3.6,2.9,6.5,6.5,6.5h79.7l-15.1,71.7
			c-0.8,3.5,1.5,6.9,5,7.7c0.5,0.1,0.9,0.2,1.3,0.2c3,0,5.7-2.1,6.3-5.1l15.7-74.3h159.5l14.4,74.2c0.6,3.1,3.3,5.2,6.4,5.2
			c0.4,0,0.8,0,1.2-0.1c3.5-0.7,5.8-4.1,5.1-7.6l-13.9-71.8h84c3.6,0,6.5-2.9,6.5-6.5C431.3,390.5,428.4,387.6,424.8,387.6z"/>
		<path fill="#00533C" d="M83.3,374.1h62c3.6,0,6.5-2.9,6.5-6.5c0-3.6-2.9-6.5-6.5-6.5h-62c-3.6,0-6.5,2.9-6.5,6.5
			C76.8,371.2,79.7,374.1,83.3,374.1z"/>
		<path fill="#00533C" d="M346.6,367.6c0,3.6,2.9,6.5,6.5,6.5h62c3.6,0,6.5-2.9,6.5-6.5c0-3.6-2.9-6.5-6.5-6.5h-62
			C349.5,361.2,346.6,364.1,346.6,367.6z"/>
	</g>
</g>
<g id="mezzanine" display="none">
	<g display="inline">
		<path fill="#00533C" d="M56.1,307L250,113.1L443.9,307c1.3,1.3,2.9,1.9,4.6,1.9s3.3-0.6,4.6-1.9c2.5-2.5,2.5-6.6,0-9.2L254.6,99.4
			c-2.4-2.4-6.7-2.4-9.2,0L46.9,297.8c-2.5,2.5-2.5,6.6,0,9.2C49.5,309.5,53.6,309.5,56.1,307z"/>
		<path fill="#00533C" d="M311.6,124.1h62v61.9c0,3.6,2.9,6.5,6.5,6.5c3.6,0,6.5-2.9,6.5-6.5v-74.9h-74.9c-3.6,0-6.5,2.9-6.5,6.5
			C305.1,121.2,308,124.1,311.6,124.1z"/>
		<path fill="#00533C" d="M489.9,468.1h-89.7V308.5c0-0.1,0-0.1,0-0.1c0.1-0.4,0.2-0.7,0.2-1.1c0-3.6-2.9-6.5-6.5-6.5H250.3
			c-1.9,0-3.6,0.9-4.8,2.2c-1.2,1.2-1.9,2.8-1.9,4.6v42.7c0,0.4,0.2,0.8,0.2,1.2L198,466.3h-85.2V308.5c0-3.6-2.9-6.5-6.5-6.5
			c-3.6,0-6.5,2.9-6.5,6.5v159.5H10.1c-3,0-5.5,2.4-5.5,5.5s2.4,5.5,5.5,5.5h89.7v0.3h99.5c0.1,0.1,0.2,0.2,0.4,0.2
			c0.8,0.3,1.6,0.5,2.4,0.5c0.8,0,1.6-0.4,2.4-0.7h195.8V479h89.7c3,0,5.5-2.4,5.5-5.5S492.9,468.1,489.9,468.1z M256.5,313.8h15.7
			V347h-15.7V313.8z M285.1,313.8h15.7V347h-15.7V313.8z M313.7,313.8h15.7V347h-15.7V313.8z M342.4,313.8H358V347h-15.7V313.8z
			 M371,313.8h16.3V347H371V313.8z M254.4,360h132.9v106.4H211.9L254.4,360z"/>
	</g>
</g>
<g id="terrasse" display="none">
	<g display="inline">
		<path fill="#00533C" d="M493.1,468.9H308.3l35-191.9l38.4,6.7c0.3,0.1,0.6,0.1,0.9,0.1c2.7,0,5-1.9,5.5-4.6c0.5-3-1.5-5.9-4.5-6.4
			L294,257.1c-3-0.5-5.9,1.5-6.4,4.5c-0.5,3,1.5,5.9,4.5,6.4l40.3,7l-35.3,193.8H5.6c-3.1,0-5.5,2.5-5.5,5.5c0,3.1,2.5,5.5,5.5,5.5
			h487.6c3.1,0,5.5-2.5,5.5-5.5C498.7,471.4,496.2,468.9,493.1,468.9z"/>
		<path fill="#00533C" d="M489.4,291.3l-89.7-15.7c-3-0.5-5.9,1.5-6.4,4.5c-0.5,3,1.5,5.9,4.5,6.4l89.7,15.7
			c0.3,0.1,0.6,0.1,0.9,0.1c2.7,0,5-1.9,5.5-4.6C494.5,294.7,492.5,291.8,489.4,291.3z"/>
		<path fill="#00533C" d="M184.8,249.4l89.7,15.7c0.3,0.1,0.6,0.1,0.9,0.1c2.7,0,5-1.9,5.5-4.6c0.5-3-1.5-5.9-4.5-6.4l-89.7-15.7
			c-3-0.5-5.9,1.5-6.4,4.5C179.7,246,181.7,248.8,184.8,249.4z"/>
		<path fill="#00533C" d="M187.1,217.3l306.3,54.1c0.3,0.1,0.6,0.1,1,0.1c1.4,0,2.8-0.5,3.9-1.6c1.3-1.2,1.9-3,1.6-4.8
			c-0.4-3-12.1-74.3-128.9-109.7c-1.8-4-6-10.7-13.6-11.8c-7.4-1.1-13.6,3.8-16.8,6.9c-7.8-0.6-30.4-1.8-57.4,2.7
			c-44,7.3-78.4,26.4-99.6,55.3c-1.1,1.5-1.4,3.6-0.7,5.4C183.7,215.7,185.2,217,187.1,217.3z M342.2,161.9c1.9,0.2,3.8-0.6,5-2
			c1.2-1.5,5.6-5.6,8.6-5.1c2.7,0.4,5.1,5,5.8,7c0.5,1.8,1.9,3.1,3.7,3.7c89.2,26.2,114.7,74.7,121.4,93.6l-288.4-51
			C247.5,151.9,341.3,161.8,342.2,161.9z"/>
		<path fill="#00533C" d="M35.8,357c1.3,4.2,4.7,12.7,12.7,16.2c2.2,0.9,4.6,1.4,7,1.4c2.8,0,5.9-0.9,9-2.2v31H41.6
			c-1.6,0-3.2,0.7-4.2,2c-1,1.3-1.5,2.9-1.2,4.5l8.8,51.5c0.4,2.7,2.8,4.6,5.5,4.6h37c2.6,0,4.9-1.8,5.4-4.4l11.2-51.5
			c0.4-1.6-0.1-3.4-1.1-4.7c-1-1.3-2.7-2.1-4.3-2.1H75.7v-32.3c7.8,1.8,19.2,4.1,28.1-2.7c6.4-4.9,10.1-13.4,11.1-25.7
			c3.6-2.1,8.9-6.3,10.8-13.3c1.8-6.4,0.1-13.4-5-20.6c0-4.7-1-15.7-8.9-22c-5.2-4.1-11.9-5.3-20.1-3.4c-5.4-3.7-19-11.6-33.1-7.3
			c-11.6,3.5-20.4,14-26.1,31.3c-10,5.8-15.1,12.9-15.4,21.1C16.6,342.1,30.4,353.2,35.8,357z M82.9,454.9H55.1l-6.9-40.4h43.4
			L82.9,454.9z M39.7,316c1.3-0.7,2.3-1.9,2.7-3.3c4.5-14.8,11-23.5,19.3-26c1.8-0.5,3.6-0.8,5.3-0.8c10.3,0,19.8,7.7,19.9,7.8
			c1.4,1.2,3.3,1.6,5.1,1c5.8-1.7,10.1-1.5,12.8,0.7c4.4,3.5,4.9,11.8,4.7,14.7c-0.1,1.4,0.3,2.7,1.1,3.8c3.8,4.9,5.2,9.1,4.3,12.5
			c-1.1,4.1-5.8,6.9-7.5,7.6c-2,0.8-3.4,2.7-3.5,4.9c-0.5,10.5-2.8,17.5-6.9,20.7c-5.1,3.9-13.1,2-19.6,0.6c-5.3-1.2-9.5-2.2-12.9,0
			c-3.3,2.1-8,4.3-11.5,2.8c-4.2-1.8-6.4-8.2-6.8-10.5c-0.3-1.5-1.2-2.8-2.5-3.6c-4.1-2.6-15.8-11.9-15.4-20.1
			C28.3,324.3,32.2,320,39.7,316z"/>
		<path fill="#00533C" d="M148.3,466c3.1,0,5.5-2.5,5.5-5.5v-35.8h118v35.8c0,3.1,2.5,5.5,5.5,5.5c3.1,0,5.6-2.5,5.6-5.5v-99.9
			c0-3.1-2.5-5.6-5.6-5.6c-3.1,0-5.5,2.5-5.5,5.6v53h-118v-50.7c0-3.1-2.5-5.5-5.5-5.5s-5.6,2.5-5.6,5.5v97.6
			C142.7,463.6,145.2,466,148.3,466z"/>
		<path fill="#00533C" d="M170.5,405.1h83.7c3.1,0,5.6-2.5,5.6-5.6v-70c0-3.1-2.5-5.5-5.6-5.5h-83.7c-3.1,0-5.6,2.5-5.6,5.5v70
			C165,402.7,167.4,405.1,170.5,405.1z M176.1,335.2h72.7V394h-72.7V335.2z"/>
	</g>
</g>
<g id="salle_de_bain" display="none">
	<g display="inline">
		<path fill="#00533C" d="M300.1,99.1c-87.8,0-112.6,75.4-114,80.1c-35.8,2.9-70.3,25.7-102.8,68.3c-1.5,2-1.8,4.8-0.7,7
			c1.1,2.2,3.3,3.9,5.8,3.9h212c2.4,0,4.6-1.6,5.7-3.7c1.1-2.1,1-5-0.3-6.9c-1.8-2.7-43.7-64.9-106-68.7
			c5.8-15.4,30.5-66.9,100.1-66.9c109.3,3.9,107.4,112.9,104.5,277.7c-0.5,26.9-1,54.8-1,83.8c0,3.6,2.9,6.5,6.5,6.5
			c3.6,0,6.5-2.9,6.5-6.5c0-28.9,0.5-56.7,0.9-83.6C420.2,223.6,422.3,103.5,300.1,99.1z M287.3,245.3H101.8
			c30.6-39.2,62.6-54.3,94.9-53.2C239.4,193.5,272.9,232.2,287.3,245.3z"/>
		<path fill="#00533C" d="M145,284.8c-3.6,0-6.5,2.9-6.5,6.5v31.2c0,3.6,2.9,6.5,6.5,6.5c3.6,0,6.5-2.9,6.5-6.5v-31.2
			C151.5,287.7,148.6,284.8,145,284.8z"/>
		<path fill="#00533C" d="M194.1,284.8c-3.6,0-6.5,2.9-6.5,6.5v31.2c0,3.6,2.9,6.5,6.5,6.5s6.5-2.9,6.5-6.5v-31.2
			C200.6,287.7,197.7,284.8,194.1,284.8z"/>
		<path fill="#00533C" d="M243.3,284.8c-3.6,0-6.5,2.9-6.5,6.5v31.2c0,2.3,1.2,4.3,3,5.5c0.8-1.6,2.4-2.9,4.7-2.9
			c1.7,0,2.9,0.7,3.6,1.7c1-1.1,1.7-2.7,1.7-4.3v-31.2C249.7,287.7,246.8,284.8,243.3,284.8z"/>
		<path fill="#00533C" d="M145,349.2c-3.6,0-6.5,2.9-6.5,6.5v31.2c0,3.6,2.9,6.5,6.5,6.5c3.6,0,6.5-2.9,6.5-6.5v-31.2
			C151.5,352.1,148.6,349.2,145,349.2z"/>
		<path fill="#00533C" d="M194.1,349.2c-3.6,0-6.5,2.9-6.5,6.5v31.2c0,3.6,2.9,6.5,6.5,6.5s6.5-2.9,6.5-6.5v-31.2
			C200.6,352.1,197.7,349.2,194.1,349.2z"/>
		<path fill="#00533C" d="M243.3,349.2c-3.6,0-6.5,2.9-6.5,6.5v31.2c0,3.6,2.9,6.5,6.5,6.5c3.6,0,6.5-2.9,6.5-6.5v-31.2
			C249.7,352.1,246.8,349.2,243.3,349.2z"/>
		<path fill="#00533C" d="M145,413.7c-3.6,0-6.5,2.9-6.5,6.5v31.2c0,3.6,2.9,6.5,6.5,6.5c3.6,0,6.5-2.9,6.5-6.5v-31.2
			C151.5,416.6,148.6,413.7,145,413.7z"/>
		<path fill="#00533C" d="M194.1,413.7c-3.6,0-6.5,2.9-6.5,6.5v31.2c0,3.6,2.9,6.5,6.5,6.5s6.5-2.9,6.5-6.5v-31.2
			C200.6,416.6,197.7,413.7,194.1,413.7z"/>
		<path fill="#00533C" d="M243.3,413.7c-3.6,0-6.5,2.9-6.5,6.5v31.2c0,3.6,2.9,6.5,6.5,6.5c3.6,0,6.5-2.9,6.5-6.5v-31.2
			C249.7,416.6,246.8,413.7,243.3,413.7z"/>
	</g>
</g>
<g id="clim_naturelle" display="none">
	<path display="inline" fill="#00533C" d="M343.4,235.2l63.6,37.7c1,0.6,2.2,0.9,3.3,0.9c2.2,0,4.4-1.1,5.6-3.2
		c1.8-3.1,0.8-7-2.3-8.9l-57.6-34.1l55.7-33.2c3-1.8,4.1-5.8,2.2-8.9c-1.8-3.1-5.8-4.1-8.9-2.3l-56,33.4v-59.4
		c0-3.6-2.9-6.5-6.5-6.5c-3.6,0-6.5,2.9-6.5,6.5v67.2l-80.5,48v-94.8l62.7-34.4c3.1-1.7,4.3-5.7,2.6-8.8c-1.7-3.1-5.7-4.3-8.8-2.6
		l-56.4,31V98.3c0-3.6-2.9-6.5-6.5-6.5c-3.6,0-6.5,2.9-6.5,6.5V163L190,133.9c-3.1-1.7-7.1-0.6-8.8,2.5c-1.7,3.1-0.6,7.1,2.6,8.8
		l59,32.5v93.2l-82.1-49.4v-66.4c0-3.6-2.9-6.5-6.5-6.5c-3.6,0-6.5,2.9-6.5,6.5v58.6l-50.5-30.4c-3-1.8-7-0.9-8.9,2.2
		c-1.8,3.1-0.9,7,2.2,8.9l50.9,30.6l-54.9,31.6c-3.1,1.8-4.2,5.7-2.4,8.8c1.2,2.1,3.4,3.2,5.6,3.2c1.1,0,2.2-0.3,3.2-0.9l61.1-35.2
		l83.9,50.4l-83.9,50.1l-57.4-31.8c-3.1-1.7-7.1-0.6-8.8,2.5c-1.7,3.1-0.6,7.1,2.5,8.8l50.9,28.2l-50.6,30.2c-3,1.8-4.1,5.8-2.2,8.9
		c1.2,2,3.3,3.2,5.6,3.2c1.1,0,2.3-0.3,3.3-0.9l50.5-30.1v62c0,3.6,2.9,6.5,6.5,6.5c3.6,0,6.5-2.9,6.5-6.5v-69.7l82.1-49v98.1
		L180,427.3c-3.1,1.7-4.3,5.6-2.6,8.8c1.2,2.2,3.4,3.4,5.7,3.4c1,0,2.1-0.3,3.1-0.8l56.4-30.5v65.4c0,3.6,2.9,6.5,6.5,6.5
		c3.6,0,6.5-2.9,6.5-6.5v-65.4l56.4,30.6c1,0.5,2,0.8,3.1,0.8c2.3,0,4.5-1.2,5.7-3.4c1.7-3.1,0.5-7.1-2.6-8.8l-62.6-33.9v-99.6
		l81.6,49.1c-0.6,1-1.1,2.1-1.1,3.4v73.5c0,3.6,2.9,6.5,6.5,6.5c3.6,0,6.5-2.9,6.5-6.5V350l55.3,33.3c1,0.6,2.2,0.9,3.3,0.9
		c2.2,0,4.3-1.1,5.5-3.1c1.8-3.1,0.9-7-2.2-8.9l-52-31.3l53.2-28.8c3.1-1.7,4.3-5.6,2.6-8.8c-1.7-3.1-5.7-4.3-8.8-2.6l-59.9,32.5
		l-83.2-50L343.4,235.2z"/>
</g>
<g id="lave_vaisselle" display="none">
	<g display="inline">
		<path fill="#00533C" d="M315.2,148.6c7.1,0,12.9-5.8,12.9-12.9c0-7.1-5.8-12.9-12.9-12.9c-7.1,0-12.9,5.8-12.9,12.9
			C302.2,142.8,308,148.6,315.2,148.6z"/>
		<path fill="#00533C" d="M358.3,148.6c7.1,0,12.9-5.8,12.9-12.9c0-7.1-5.8-12.9-12.9-12.9c-7.1,0-12.9,5.8-12.9,12.9
			C345.3,142.8,351.1,148.6,358.3,148.6z"/>
		<path fill="#00533C" d="M114.2,142.1h108c3.6,0,6.5-2.9,6.5-6.5c0-3.6-2.9-6.5-6.5-6.5h-108c-3.6,0-6.5,2.9-6.5,6.5
			C107.7,139.2,110.6,142.1,114.2,142.1z"/>
		<path fill="#00533C" d="M431.1,173.4C431.1,173.4,431.1,173.3,431.1,173.4l0-74.9c0-3.6-2.9-6.5-6.5-6.5H75.4
			c-3.6,0-6.5,2.9-6.5,6.5v74.9c0,0,0,0,0,0c0,0,0,0,0,0v300.1c0,3.6,2.9,6.5,6.5,6.5h349.2c3.6,0,6.5-2.9,6.5-6.5L431.1,173.4
			C431.1,173.4,431.1,173.4,431.1,173.4z M418.1,105v62H81.9v-62H418.1z M81.9,467.1V179.9h336.2v287.2H81.9z"/>
		<path fill="#00533C" d="M279.1,225c-3.6,0-6.5,2.9-6.5,6.5v187.7c0,3.6,2.9,6.5,6.5,6.5c3.6,0,6.5-2.9,6.5-6.5V361H305
			c3.6,0,6.5-2.9,6.5-6.5C311.5,302.3,301.2,225,279.1,225z M285.6,348v-95.2c5.9,18.1,12.3,51.3,12.9,95.2H285.6z"/>
		<path fill="#00533C" d="M220.9,225c-17.8,0-32.4,14.5-32.4,32.4v19.4c0,15.6,11.1,28.7,25.9,31.7v110.7c0,3.6,2.9,6.5,6.5,6.5
			c3.6,0,6.5-2.9,6.5-6.5V308.5c14.7-3,25.9-16.1,25.9-31.7v-19.4C253.2,239.5,238.7,225,220.9,225z M240.3,276.8
			c0,10.7-8.7,19.4-19.4,19.4c-10.7,0-19.4-8.7-19.4-19.4v-19.4c0-10.7,8.7-19.4,19.4-19.4c10.7,0,19.4,8.7,19.4,19.4V276.8z"/>
	</g>
</g>
<g id="kit_cuisine" display="none">
	<g display="inline">
		<path fill="#00533C" d="M430.3,268.9H127.4c-4,0-7.2,3.2-7.2,7.2v125.6c0,24.3,19,43.3,43.3,43.3l0,0v27.8c0,4,3.2,7.2,7.2,7.2
			c4,0,7.2-3.2,7.2-7.2V445h201.9v27.8c0,4,3.2,7.2,7.2,7.2c4,0,7.2-3.2,7.2-7.2V445c24.3,0,43.3-19,43.3-43.3V276.1
			C437.5,272.1,434.3,268.9,430.3,268.9z M423.1,401.7c0,16.2-12.7,28.9-28.9,28.9h-7.2c0,0,0,0,0,0c0,0,0,0,0,0H170.7c0,0,0,0,0,0
			s0,0,0,0h-7.2c-16.2,0-28.8-12.7-28.8-28.9V283.3h288.5V401.7z"/>
		<path fill="#00533C" d="M163.5,95.8v36.1v64.9c0,24.3,19,43.3,43.3,43.3h129.8c24.3,0,43.3-19,43.3-43.3v-64.9
			c0-4-3.2-7.2-7.2-7.2H177.9V95.8c0-24.3-19-43.3-43.3-43.3H69.7c-4,0-7.2,3.2-7.2,7.2c0,4,3.2,7.2,7.2,7.2h64.9
			C150.8,67,163.5,79.6,163.5,95.8z M177.9,196.8v-57.7h28.8v86.5l0,0C190.5,225.6,177.9,213,177.9,196.8z M264.4,225.6h-43.3v-86.5
			h43.3V225.6z M278.9,139.1h43.3v86.5h-43.3V139.1z M365.4,196.8c0,16.2-12.7,28.8-28.8,28.8l0,0v-86.5h28.8V196.8z"/>
		<path fill="#00533C" d="M213.9,341c4,0,7.2-3.2,7.2-7.2v-7.2h115.4v7.2c0,4,3.2,7.2,7.2,7.2c4,0,7.2-3.2,7.2-7.2v-14.4
			c0-4-3.2-7.2-7.2-7.2H213.9c-4,0-7.2,3.2-7.2,7.2v14.4C206.7,337.8,210,341,213.9,341z"/>
	</g>
</g>
<g id="cuisine" display="none">
	<g display="inline">
		<path fill="#00533C" d="M475.4,211c0-3.6-2.9-6.5-6.5-6.5H31.1c-3.6,0-6.5,2.9-6.5,6.5c0,3.6,2.9,6.5,6.5,6.5h143.7v52.1
			c0,21.4,17.4,38.8,38.9,38.8h222.9c21.4,0,38.8-17.4,38.8-38.8L475.4,211C475.4,211,475.4,211,475.4,211z M436.5,295.5H213.6
			c-14.3,0-25.9-11.6-25.9-25.9v-52.1h274.7v52.1C462.4,283.9,450.8,295.5,436.5,295.5z"/>
		<path fill="#00533C" d="M370.5,370.4c-2.2,0.2-4.1,1.4-5.1,3.2l-9.3,16.3L330.5,351c-1.2-1.8-3.5-2.8-5.5-2.9
			c-2.2,0-4.2,1.2-5.4,3l-23.9,38.2l-9.5-15.1c-1.1-1.7-2.9-2.8-4.9-3c-2-0.2-4,0.6-5.4,2.1c-1.7,1.8-40.9,45.7-26.7,77.6
			c8.6,19.3,34.1,29.1,75.9,29.1c38.6,0,62.9-9.6,72-28.5c15.5-31.9-19.5-76.8-21-78.7C374.7,371.1,372.6,370.2,370.5,370.4z
			 M385.4,445.9c-6.7,13.9-27.6,21.2-60.4,21.2c-35.7,0-57.8-7.4-64-21.4c-7.5-16.9,8-42.7,19-57l10.2,16.3c1.2,1.9,3.3,3,5.5,3
			s4.3-1.2,5.5-3l24-38.4l25.8,39.3c1.2,1.9,3.4,3,5.6,2.9c2.2-0.1,4.3-1.3,5.4-3.3l9.5-16.7C381.2,403.6,393.6,429.1,385.4,445.9z"
			/>
	</g>
</g>
</svg>
