<?xml version="1.0" encoding="utf-8"?>
<!-- Generator: Adobe Illustrator 17.0.0, SVG Export Plug-In . SVG Version: 6.00 Build 0)  -->
<!DOCTYPE svg PUBLIC "-//W3C//DTD SVG 1.1//EN" "http://www.w3.org/Graphics/SVG/1.1/DTD/svg11.dtd">
<svg version="1.1" id="Capa_1" xmlns="http://www.w3.org/2000/svg" xmlns:xlink="http://www.w3.org/1999/xlink" x="0px" y="0px"
	 width="500px" height="500px" viewBox="0 0 500 500" enable-background="new 0 0 500 500" xml:space="preserve">
<g>
	<g>
		<path fill="#646464" d="M431.347,300.027h-62.534V68.653c0-3.752-2.501-6.253-6.253-6.253H137.44
			c-3.752,0-6.253,2.501-6.253,6.253v231.374H68.653c-3.752,0-6.253,2.501-6.253,6.253v125.067c0,3.752,2.501,6.253,6.253,6.253
			h112.56h137.574h6.253h106.307c3.752,0,6.253-2.501,6.253-6.253V306.28C437.601,302.528,435.099,300.027,431.347,300.027z
			 M174.96,425.094H74.906v-112.56H174.96V425.094z M143.693,300.027V106.173h50.027V93.666h-50.027v-18.76h212.614v18.76H306.28
			v12.507h50.027v193.854h-37.52c-3.752,0-6.253,2.501-6.253,6.253v118.814H287.52v-50.027h6.253V362.56h-87.547v12.507h6.253
			v50.027h-25.013V306.28c0-3.752-2.501-6.253-6.253-6.253H143.693z M275.013,375.067v50.027h-50.027v-50.027H275.013z
			 M425.094,425.094H325.04v-112.56h100.054V425.094z"/>
		<rect x="87.413" y="325.04" fill="#646464" width="75.04" height="12.507"/>
		<rect x="87.413" y="350.054" fill="#646464" width="75.04" height="12.507"/>
		<rect x="87.413" y="375.067" fill="#646464" width="75.04" height="12.507"/>
		<rect x="87.413" y="400.081" fill="#646464" width="75.04" height="12.507"/>
		<rect x="337.547" y="325.04" fill="#646464" width="75.04" height="12.507"/>
		<rect x="337.547" y="350.054" fill="#646464" width="75.04" height="12.507"/>
		<rect x="337.547" y="375.067" fill="#646464" width="75.04" height="12.507"/>
		<rect x="337.547" y="400.081" fill="#646464" width="75.04" height="12.507"/>
		<path fill="#646464" d="M212.48,149.946h18.76v18.76c0,3.752,2.501,6.253,6.253,6.253h25.013c3.752,0,6.253-2.501,6.253-6.253
			v-18.76h18.76c3.752,0,6.253-2.501,6.253-6.253V118.68c0-3.752-2.501-6.253-6.253-6.253h-18.76v-18.76
			c0-3.752-2.501-6.253-6.253-6.253h-25.013c-3.752,0-6.253,2.501-6.253,6.253v18.76h-18.76c-3.752,0-6.253,2.501-6.253,6.253
			v25.013C206.227,147.445,208.728,149.946,212.48,149.946z M218.733,124.933h18.76c3.752,0,6.253-2.501,6.253-6.253v-18.76h12.507
			v18.76c0,3.752,2.501,6.253,6.253,6.253h18.76v12.507h-18.76c-3.752,0-6.253,2.501-6.253,6.253v18.76h-12.507v-18.76
			c0-3.752-2.501-6.253-6.253-6.253h-18.76V124.933z"/>
		<path fill="#646464" d="M162.453,224.987h175.094c3.752,0,6.253-2.501,6.253-6.253V193.72c0-3.752-2.501-6.253-6.253-6.253
			H162.453c-3.752,0-6.253,2.501-6.253,6.253v25.013C156.2,222.485,158.701,224.987,162.453,224.987z M168.706,199.973h162.587
			v12.507H168.706V199.973z"/>
		<path fill="#646464" d="M343.8,275.013V250c0-3.752-2.501-6.253-6.253-6.253H162.453c-3.752,0-6.253,2.501-6.253,6.253v25.013
			c0,3.752,2.501,6.253,6.253,6.253h175.094C341.299,281.267,343.8,278.765,343.8,275.013z M331.294,268.76H168.706v-12.507h162.587
			V268.76z"/>
		<rect x="206.227" y="162.453" fill="#646464" width="12.507" height="12.507"/>
		<rect x="181.213" y="162.453" fill="#646464" width="12.507" height="12.507"/>
		<rect x="156.2" y="162.453" fill="#646464" width="12.507" height="12.507"/>
		<rect x="156.2" y="124.933" fill="#646464" width="12.507" height="12.507"/>
		<rect x="331.294" y="124.933" fill="#646464" width="12.507" height="12.507"/>
		<rect x="306.28" y="124.933" fill="#646464" width="12.507" height="12.507"/>
		<rect x="181.213" y="124.933" fill="#646464" width="12.507" height="12.507"/>
		<rect x="331.294" y="162.453" fill="#646464" width="12.507" height="12.507"/>
		<rect x="306.28" y="162.453" fill="#646464" width="12.507" height="12.507"/>
		<rect x="281.267" y="162.453" fill="#646464" width="12.507" height="12.507"/>
		<rect x="206.227" y="300.027" fill="#646464" width="12.507" height="12.507"/>
		<rect x="231.24" y="300.027" fill="#646464" width="12.507" height="12.507"/>
		<rect x="256.253" y="300.027" fill="#646464" width="12.507" height="12.507"/>
		<rect x="281.267" y="300.027" fill="#646464" width="12.507" height="12.507"/>
		<rect x="206.227" y="325.04" fill="#646464" width="12.507" height="12.507"/>
		<rect x="231.24" y="325.04" fill="#646464" width="12.507" height="12.507"/>
		<rect x="256.253" y="325.04" fill="#646464" width="12.507" height="12.507"/>
		<rect x="281.267" y="325.04" fill="#646464" width="12.507" height="12.507"/>
		<rect x="243.747" y="393.827" fill="#646464" width="12.507" height="12.507"/>
	</g>
</g>
</svg>
