<?xml version="1.0"?><svg width="640" height="480" xmlns="http://www.w3.org/2000/svg">
 <title>restaurante</title>
 <g>
  <title>Layer 1</title>
  <path clip-rule="evenodd" d="m230.393982,9l-209.393982,0c-9.94101,0 -18,8.05901 -18,18l0,418.787994c0,9.940002 8.05899,18 18,18l418.786987,0c9.94104,0 18,-8.059998 18,-18l0,-418.787994c0,-9.94099 -8.05896,-18 -18,-18l-209.393005,0z" fill="#0367a6" fill-rule="evenodd" id="svg_2"/>
  <path clip-rule="evenodd" d="m230.27951,120.720993c63.292938,0 109.771515,49.824982 109.771515,111.216019c0,61.390991 -46.478577,111.216003 -109.771515,111.216003c-63.293884,0 -114.66153,-49.825012 -114.66153,-111.216003c0,-61.391037 51.367645,-111.216019 114.66153,-111.216019" fill="#ffffff" fill-rule="evenodd" id="svg_44"/>
  <path clip-rule="evenodd" d="m99.317993,184.126053c0,8.441772 -6.727165,17.469788 -15.434013,17.469788l0,142.298691c0,20.204437 -24.041241,20.204437 -24.041241,0l0,-142.298691c-8.469688,0 -15.844749,-7.464737 -15.844749,-18.681351l0,-78.281837c0,-6.839386 8.60535,-7.112961 8.60535,0.234489l0,57.880905l7.205269,0l0,-58.388969c0,-6.292259 8.263824,-6.683075 8.263824,0.273575l0,58.115395l7.478447,0l0,-58.310799c0,-6.565842 8.025772,-6.839417 8.025772,0.234489l0,58.076309l7.340904,0l0,-58.310799c0,-6.487671 8.400436,-6.761246 8.400436,0.234489l0,79.454315z" fill="#ffffff" fill-rule="evenodd" id="svg_45"/>
  <path clip-rule="evenodd" d="m224.193054,118.281013c60.83902,0 110.21698,50.496971 110.21698,112.715996c0,62.218994 -49.37796,112.716003 -110.21698,112.716003c-60.839935,0 -110.215057,-50.497009 -110.215057,-112.716003c0,-62.219986 49.376038,-112.715996 110.215057,-112.715996" fill="#ffffff" fill-rule="evenodd" id="svg_47"/>
  <path clip-rule="evenodd" d="m227.073975,124.945007c58.264038,0 105.55304,47.287994 105.55304,105.552002c0,58.263977 -47.289001,105.552002 -105.55304,105.552002c-58.264954,0 -105.552971,-47.287018 -105.552971,-105.552002c0,-58.265015 47.288017,-105.552002 105.552971,-105.552002" fill="#0367a6" fill-rule="evenodd" id="svg_48"/>
  <path clip-rule="evenodd" d="m227.192993,135.061005c52.682007,0 95.437988,42.75499 95.437988,95.436005c0,52.681 -42.755981,95.436005 -95.437988,95.436005c-52.679993,0 -95.435974,-42.755005 -95.435974,-95.436005c0,-52.681015 42.755981,-95.436005 95.435974,-95.436005" fill="#ffffff" fill-rule="evenodd" id="svg_49"/>
  <switch>
   <g id="svg_1"/>
  </switch>
  <path clip-rule="evenodd" d="m227.693008,143.828995c47.564987,0 86.167953,38.827011 86.167953,86.668015c0,47.840027 -38.602966,86.667999 -86.167953,86.667999c-47.56398,0 -86.167007,-38.827972 -86.167007,-86.667999c0,-47.841003 38.603973,-86.668015 86.167007,-86.668015" fill="#3a7faa" fill-rule="evenodd" opacity="0.65" id="svg_55"/>
  <path clip-rule="evenodd" d="m401.113037,112.75634l0,231.80497c0,20.741486 -29.334595,20.413605 -29.334595,0l0,-91.943146l-15.581421,0l0,-139.861824c0,-32.546982 44.916016,-32.546982 44.916016,0z" fill="#ffffff" fill-rule="evenodd" id="svg_56"/>
  <path clip-rule="evenodd" d="m387.139099,241.800995l-1.731598,0c-3.810364,0 -6.90152,1.807495 -6.90152,4.0383l0,96.267395c0,2.230865 3.089996,4.0383 6.90152,4.0383l3.462036,0c3.812683,0 6.901459,-1.807434 6.901459,-4.0383l0,-96.267395c0,-2.230804 -3.087646,-4.0383 -6.901459,-4.0383l-1.730438,0z" fill="#0367a6" fill-rule="evenodd" opacity="0.85" id="svg_58"/>
  <path clip-rule="evenodd" d="m72.352898,204.536987l-1.62915,0c-3.590767,0 -6.501755,2.454651 -6.501755,5.482544l0,130.642914c0,3.027893 2.90992,5.482544 6.501755,5.482544l3.261536,0c3.589676,0 6.501717,-2.453766 6.501717,-5.482544l0,-130.642914c0,-3.027893 -2.910973,-5.482544 -6.501717,-5.482544l-1.632385,0z" fill="#0367a6" fill-rule="evenodd" opacity="0.85" id="svg_60"/>
 </g>

</svg>